<?xml version="1.0" encoding="UTF-8" standalone="no"?><!DOCTYPE svg PUBLIC "-//W3C//DTD SVG 1.1//EN" "http://www.w3.org/Graphics/SVG/1.1/DTD/svg11.dtd"><svg width="100%" height="100%" viewBox="0 0 512 512" version="1.1" xmlns="http://www.w3.org/2000/svg" xmlns:xlink="http://www.w3.org/1999/xlink" xml:space="preserve" xmlns:serif="http://www.serif.com/" style="fill-rule:evenodd;clip-rule:evenodd;stroke-linejoin:round;stroke-miterlimit:1.41421;"><path d="M58.625,128.652c-3.113,0 -6.043,-1.902 -7.203,-4.992l-22.535,-60.094c-1.492,-3.976 0.524,-8.41 4.5,-9.902c3.977,-1.488 8.406,0.523 9.899,4.5l22.539,60.097c1.492,3.977 -0.524,8.411 -4.5,9.899c-0.891,0.336 -1.801,0.492 -2.7,0.492Z" style="fill:#4e5093;fill-rule:nonzero;"/><path d="M221.254,288.167l-63.711,23.903l-34.718,13.019c-15.348,5.754 -32.469,-2.019 -38.223,-17.379l-51.551,-137.46l-4.152,-11.063c-0.418,-1.129 -0.77,-2.265 -1.047,-3.406c-3.535,-14.395 4.195,-29.488 18.426,-34.816l34.461,-12.93l63.968,-23.992l76.547,204.124Z" style="fill:#fef5e3;fill-rule:nonzero;"/><path d="M221.254,288.167l-63.711,23.903l-0.605,-1.602l-39.528,-15.492c-27.054,-10.621 -40.437,-41.266 -29.835,-68.316l23.929,-62.02c-11.246,-10.425 -20.218,-23.449 -25.793,-38.343c-2.246,-5.989 -3.906,-12.102 -4.972,-18.262l63.964,-23.992l76.551,204.124Z" style="fill:#ffe5c0;fill-rule:nonzero;"/><path d="M77.481,196.918l-30.188,11.32l-8.476,-22.609l30.183,-11.321c5.301,-1.988 11.211,0.696 13.2,6l1.281,3.406c1.988,5.305 -0.699,11.215 -6,13.204Z" style="fill:#898ec9;fill-rule:nonzero;"/><path d="M352.59,116.234l-14.043,55.688c-5.461,21.632 -27.43,34.753 -49.063,29.292l-14.386,-3.632l-53.473,-13.481l11.496,-45.554l21.906,5.523l39.571,9.984l12.437,-49.316l45.555,11.496Z" style="fill:#6163aa;fill-rule:nonzero;"/><path d="M255.031,144.07l20.067,53.516l-53.473,-13.485l11.496,-45.554l21.91,5.523Z" style="fill:#4e5093;fill-rule:nonzero;"/><path d="M311.012,408.523c-1.68,1.937 -3.536,3.761 -5.582,5.445l-62.543,51.582l-34.625,-41.988l56.664,-46.731l-16.031,-19.437l-30.704,-37.238l41.993,-34.625l43.957,53.296l5.726,6.942l1.899,2.304c14.757,17.899 13.984,43.512 -0.754,60.45Z" style="fill:#6163aa;fill-rule:nonzero;"/><path d="M264.922,384.515c-4.152,0 -7.57,-3.309 -7.684,-7.485c-0.113,-4.242 3.235,-7.777 7.481,-7.89l26.675,-0.719c4.239,-0.129 7.778,3.234 7.895,7.481c0.113,4.246 -3.238,7.781 -7.48,7.894l-26.676,0.715c-0.071,0.004 -0.141,0.004 -0.211,0.004Z" style="fill:#4e5093;fill-rule:nonzero;"/><path d="M260.184,285.531l43.957,53.296l-4.305,-0.535l-50.941,19.102l-30.704,-37.238l41.993,-34.625Z" style="fill:#4e5093;fill-rule:nonzero;"/><path d="M311.012,408.523c-7.641,-3.895 -13.907,-10.539 -17.153,-19.196c-6.269,-16.707 0.86,-35.156 16.008,-43.558l1.899,2.304c14.757,17.899 13.984,43.512 -0.754,60.45Z" style="fill:#00c2cc;fill-rule:nonzero;"/><path d="M449.097,290.179l-6.769,54.004l-143.914,-18.012l-54.66,20.496c-25.824,9.684 -54.277,-0.832 -67.976,-23.66c-1.747,-2.891 -3.247,-5.984 -4.473,-9.258l-47.926,-127.792l118.094,-44.289l48.214,128.558l37.59,4.707l69.676,8.723l52.144,6.523Z" style="fill:#898ec9;fill-rule:nonzero;"/><path d="M352.031,337.652c-0.492,0 -0.988,-0.047 -1.488,-0.145c-4.168,-0.816 -6.883,-4.859 -6.067,-9.023l4.176,-21.309c0.82,-4.168 4.86,-6.879 9.027,-6.07c4.168,0.816 6.883,4.859 6.067,9.027l-4.176,21.309c-0.719,3.664 -3.937,6.211 -7.539,6.211Z" style="fill:#6163aa;fill-rule:nonzero;"/><path d="M264.008,201.742l-20.633,7.738c-5.922,2.223 -12.523,-0.777 -14.746,-6.703c-2.219,-5.922 0.781,-12.524 6.703,-14.742l20.633,-7.739l8.043,21.446Z" style="fill:#ff5c3c;fill-rule:nonzero;"/><path d="M241.473,141.668l8.109,21.625c-9.711,9.367 -21.297,16.664 -34.305,21.543c-26.738,10.027 -55.124,7.863 -78.992,-3.719l105.188,-39.449Z" style="fill:#6163aa;fill-rule:nonzero;"/><path d="M248.039,304.355l-7.945,20.265c-1.141,2.895 -2.867,5.493 -5.035,7.637c-2.172,2.141 -4.797,3.832 -7.707,4.926c-5.086,1.906 -10.68,1.863 -15.739,-0.121l-35.832,-14.055c-1.75,-2.891 -3.246,-5.984 -4.472,-9.258l-47.93,-127.792l43.223,-16.211l17.074,6.695l-23.145,59.027l19.688,7.727c0.414,-0.184 0.828,-0.352 1.254,-0.512c6.508,-2.441 13.656,-2.387 20.133,0.149l14.914,5.851c5.453,2.141 9.757,6.285 12.109,11.656c1.863,4.258 2.32,8.883 1.363,13.336l5.614,2.195c5.468,2.149 9.769,6.282 12.117,11.665c2.351,5.382 2.461,11.351 0.316,16.82Z" style="fill:#6163aa;fill-rule:nonzero;"/><path d="M396.957,283.656c-3.035,10.386 -10.75,19.257 -21.66,23.351c-18.379,6.891 -38.871,-2.422 -45.766,-20.804c-1.394,-3.715 -2.121,-7.512 -2.254,-11.27l69.68,8.723Z" style="fill:#2de0c7;fill-rule:nonzero;"/><path d="M145.172,242.175l47.352,18.563l-17.153,43.746l-53.472,-20.961c-20.774,-8.153 -31.012,-31.598 -22.867,-52.367l22.656,-58.707l11.383,-29.516l43.742,17.141l-11.575,30.023l-20.066,52.078Z" style="fill:#898ec9;fill-rule:nonzero;"/><path d="M176.813,160.074l-11.575,30.019c-15.714,-2.363 -30.667,-8.437 -43.55,-17.644l11.383,-29.516l43.742,17.141Z" style="fill:#6163aa;fill-rule:nonzero;"/><path d="M231.277,286.906l-16.363,-6.418l3.004,-7.653c2.039,-5.207 -0.523,-11.082 -5.73,-13.125l-14.911,-5.843c-8.363,-3.282 -17.804,0.843 -21.082,9.207l-10.16,25.914c-3.281,8.363 0.84,17.804 9.207,21.086l40.699,15.953c5.204,2.043 11.083,-0.524 13.122,-5.731l7.945,-20.269c2.043,-5.207 -0.524,-11.082 -5.731,-13.121Z" style="fill:#2de0c7;fill-rule:nonzero;"/><path d="M485.253,276.605l-8.707,69.566c-0.679,5.41 -5.613,9.246 -11.023,8.57l-28.621,-3.582c-5.41,-0.679 -9.246,-5.613 -8.57,-11.023l6.058,-48.391c2.141,-17.105 17.746,-29.238 34.852,-27.097l7.441,0.93c5.41,0.679 9.246,5.617 8.57,11.027Z" style="fill:#2de0c7;fill-rule:nonzero;"/><path d="M219.238,508.409l-44.605,-54.09c-3.473,-4.207 -2.875,-10.429 1.336,-13.898l22.25,-18.352c4.207,-3.468 10.43,-2.871 13.902,1.336l31.024,37.621c10.972,13.301 9.082,32.977 -4.223,43.949l-5.781,4.77c-4.211,3.469 -10.434,2.871 -13.903,-1.336Z" style="fill:#00c4ce;fill-rule:nonzero;"/><path d="M262.891,59.844c9.89,26.378 6.379,54.496 -7.149,76.863c-9.918,16.437 -25.25,29.769 -44.621,37.035c-45.746,17.156 -96.738,-6.02 -113.894,-51.77c-17.156,-45.746 6.019,-96.738 51.765,-113.894c10.071,-3.777 20.383,-5.598 30.555,-5.648c35.996,-0.211 69.961,21.738 83.344,57.414Z" style="fill:#898ec9;fill-rule:nonzero;"/><path d="M262.883,59.848c9.894,26.378 6.383,54.492 -7.145,76.859l-35.257,-9.344l-14.258,-3.789l-7.672,-2.035l-27.422,-7.266l-9.137,-2.426l17.551,-109.413c13.449,-0.079 26.609,2.925 38.52,8.586c8.55,4.078 16.464,9.515 23.375,16.164c2.027,1.949 3.968,3.996 5.8,6.156c3.633,4.226 6.891,8.836 9.703,13.804c2.282,4.004 4.27,8.247 5.942,12.704Z" style="fill:#2de0c7;fill-rule:nonzero;"/><path d="M256.941,47.144l-36.46,80.219l-14.254,-3.789l41.011,-90.234c3.629,4.226 6.887,8.836 9.703,13.804Z" style="fill:#9bf2e5;fill-rule:nonzero;"/><path d="M241.438,27.184l-42.887,94.355l-27.422,-7.266l46.93,-103.253c8.554,4.078 16.468,9.515 23.379,16.164Z" style="fill:#9bf2e5;fill-rule:nonzero;"/><path d="M175.824,113.965c0,10.988 -8.91,19.898 -19.898,19.898c-10.988,0 -19.898,-8.91 -19.898,-19.898c0,-10.989 8.91,-19.899 19.898,-19.899c10.988,0 19.898,8.91 19.898,19.899Z" style="fill:#4e5093;fill-rule:nonzero;"/><path d="M330.316,57.523l-4.297,17.043l-7.976,-2.011c-5.422,-1.368 -10.926,1.917 -12.293,7.339l-3.918,15.528c-2.199,8.711 3.082,17.554 11.793,19.754l26.992,6.808c8.711,2.195 17.555,-3.086 19.754,-11.797l10.691,-42.386c1.367,-5.422 -1.918,-10.926 -7.34,-12.293l-21.113,-5.325c-5.418,-1.367 -10.926,1.918 -12.293,7.34Z" style="fill:#2de0c7;fill-rule:nonzero;"/><path d="M240.176,241.011c-3.117,0 -6.067,-1.887 -7.227,-4.965c-1.5,-3.972 0.461,-8.39 4.434,-9.89l0.098,-0.035c3.968,-1.504 8.41,0.507 9.906,4.484c1.5,3.973 -0.508,8.41 -4.481,9.906c-0.898,0.336 -1.824,0.5 -2.73,0.5Z" style="fill:#ff5c3c;fill-rule:nonzero;"/><path d="M246.359,257.499c-3.148,0 -6.121,-1.925 -7.257,-5.043c-1.454,-3.988 0.554,-8.386 4.543,-9.839l0.097,-0.035c3.988,-1.458 8.403,0.601 9.86,4.589c1.453,3.989 -0.602,8.407 -4.594,9.86c-0.871,0.316 -1.766,0.468 -2.649,0.468Z" style="fill:#ff5c3c;fill-rule:nonzero;"/><path d="M61.864,159.453l-28.692,10.754c-0.039,0.019 -0.082,0.031 -0.121,0.043l-4.152,-11.063c-0.418,-1.129 -0.77,-2.265 -1.047,-3.406l28.617,-10.734c3.969,-1.489 8.406,0.523 9.895,4.5c1.496,3.98 -0.524,8.41 -4.5,9.906Z" style="fill:#4e5093;fill-rule:nonzero;"/><path d="M66.743,233.972c-3.114,0 -6.047,-1.902 -7.204,-4.992c-1.492,-3.973 0.524,-8.406 4.5,-9.898l8.356,-3.133c3.976,-1.492 8.41,0.523 9.902,4.5c1.489,3.976 -0.523,8.41 -4.5,9.902l-8.355,3.133c-0.891,0.332 -1.805,0.488 -2.699,0.488Z" style="fill:#898ec9;fill-rule:nonzero;"/><path d="M72.786,250.093c-3.114,0 -6.043,-1.906 -7.204,-4.992c-1.488,-3.977 0.528,-8.41 4.504,-9.902l8.356,-3.133c3.972,-1.492 8.406,0.523 9.898,4.5c1.492,3.976 -0.523,8.41 -4.5,9.902l-8.355,3.133c-0.891,0.332 -1.801,0.492 -2.699,0.492Z" style="fill:#898ec9;fill-rule:nonzero;"/><path d="M453.336,360.905c-0.297,0 -0.594,-0.015 -0.899,-0.05c-4.215,-0.493 -7.238,-4.309 -6.746,-8.528l4.594,-39.484c0.492,-4.219 4.301,-7.238 8.527,-6.75c4.219,0.492 7.238,4.309 6.75,8.527l-4.598,39.485c-0.453,3.914 -3.777,6.8 -7.628,6.8Z" style="fill:#00c2cc;fill-rule:nonzero;"/><path d="M209.582,468.679c-2.215,0 -4.41,-0.953 -5.933,-2.793l-22.219,-26.906c-2.703,-3.278 -2.238,-8.122 1.035,-10.829c3.273,-2.703 8.117,-2.242 10.824,1.036l22.219,26.906c2.703,3.273 2.242,8.121 -1.031,10.824c-1.434,1.187 -3.168,1.762 -4.895,1.762Z" style="fill:#00a6cc;fill-rule:nonzero;"/></svg>