<?xml version="1.0" encoding="UTF-8" standalone="no"?><!DOCTYPE svg PUBLIC "-//W3C//DTD SVG 1.1//EN" "http://www.w3.org/Graphics/SVG/1.1/DTD/svg11.dtd"><svg width="100%" height="100%" viewBox="0 0 512 512" version="1.1" xmlns="http://www.w3.org/2000/svg" xmlns:xlink="http://www.w3.org/1999/xlink" xml:space="preserve" xmlns:serif="http://www.serif.com/" style="fill-rule:evenodd;clip-rule:evenodd;stroke-linejoin:round;stroke-miterlimit:1.41421;"><path d="M11.152,513l488.34,0c7.196,0 12.473,-6.707 10.867,-13.711c-4.574,-19.961 -11.504,-39.543 -20.785,-58.297c-8.746,-17.707 -19.594,-34.687 -32.523,-50.554c-5.801,-7.129 -12.016,-14.024 -18.668,-20.672c-7.699,-7.7 -15.742,-14.828 -24.063,-21.391c-13.023,-10.254 -26.757,-19.133 -41.004,-26.652l-4.363,-25.575c-0.758,-4.328 -3.828,-7.898 -8,-9.257l-40.164,-13.2c-4.187,-1.375 -8.781,-0.336 -11.93,2.711l-18.519,17.817c-48.555,-7.555 -98.52,-1.438 -143.637,18.386l-9.262,-6.113c-3.671,-2.422 -8.367,-2.621 -12.23,-0.512l-37.098,20.258c-3.871,2.11 -6.246,6.172 -6.191,10.555l0.234,16.961c-1.66,1.461 -3.312,2.933 -4.918,4.43c-2.402,2.207 -4.754,4.472 -7.074,6.793c-7.309,7.296 -14.07,14.953 -20.297,22.906c-0.715,0.902 -1.406,1.808 -2.097,2.722c-6.649,8.715 -12.641,17.774 -17.997,27.114c-4.375,7.617 -8.312,15.441 -11.828,23.406c-3.347,7.586 -6.312,15.309 -8.879,23.141c-3.828,11.66 -6.796,23.562 -8.894,35.601c-1.203,6.852 4.027,13.133 10.98,13.133Z" style="fill:#ff8b73;fill-rule:nonzero;"/><path d="M500.492,512l-34.594,0c7.192,0 12.477,-6.703 10.868,-13.711c-4.579,-19.957 -11.5,-39.543 -20.789,-58.297c-8.75,-17.703 -19.594,-34.691 -32.524,-50.551c-5.805,-7.132 -12.008,-14.035 -18.664,-20.675c-7.699,-7.7 -15.742,-14.832 -24.066,-21.391c-11.625,-9.148 -23.809,-17.211 -36.426,-24.18c-2.887,-1.593 -4.82,-4.484 -5.207,-7.757l-4.582,-38.563l27.441,9.008c4.18,1.359 7.242,4.941 8,9.269l4.371,25.575c14.239,7.511 27.977,16.394 40.992,26.652c8.325,6.559 16.368,13.687 24.071,21.387c6.652,6.644 12.867,13.547 18.668,20.675c12.933,15.86 23.777,32.848 32.519,50.555c9.289,18.754 16.211,38.336 20.785,58.293c1.61,7.008 -3.66,13.711 -10.863,13.711Z" style="fill:#ff5c3c;fill-rule:nonzero;"/><path d="M490.57,439.992c-9.683,-0.019 -21.371,-0.039 -34.625,-0.058c-34.363,-0.024 -79.269,-0.024 -127.168,-0.012c-18.554,0 -36.894,4.711 -52.504,14.125c-4.265,2.594 -8.968,4.93 -14.019,7.004c-16.067,6.621 -35.703,10.515 -56.926,10.515c-27.836,0 -52.953,-6.683 -70.824,-17.437c-15.609,-9.383 -33.926,-14.063 -52.473,-14.043c-11.894,0.012 -38.683,0.031 -63.082,0.043c3.508,-7.973 7.453,-15.797 11.821,-23.414c5.355,-9.34 11.355,-18.403 17.996,-27.11c13.898,0 26.144,0 33.168,-0.007c15.64,-0.032 31.117,-3.364 44.941,-10.039c2.582,-1.243 5.105,-2.606 7.555,-4.086c17.882,-10.774 43.039,-17.481 70.898,-17.481c27.801,0 52.899,6.676 70.758,17.395c15.609,9.383 33.898,14.043 52.422,14.043c34.043,-0.02 66.59,-0.032 94.922,-0.008c12.425,0 24.039,0.008 34.625,0.019c12.929,15.86 23.777,32.848 32.515,50.551Z" style="fill:#ff5c3c;fill-rule:nonzero;"/><path d="M490.57,439.992c-9.683,-0.019 -21.371,-0.039 -34.625,-0.058c-8.738,-17.688 -19.574,-34.657 -32.492,-50.493c-0.012,-0.011 -0.012,-0.011 -0.023,-0.019c12.422,0 24.039,0.008 34.625,0.019c12.929,15.86 23.777,32.848 32.515,50.551Z" style="fill:#ff2e04;fill-rule:nonzero;"/><path d="M333.66,479.328c-4.242,0 -7.687,-3.426 -7.707,-7.672l0,-0.113c-0.019,-4.258 3.418,-7.723 7.672,-7.738l0.035,0c4.242,0 7.688,3.425 7.707,7.672l0,0.113c0.016,4.258 -3.418,7.723 -7.676,7.738c-0.011,0 -0.023,0 -0.031,0Z" style="fill:#ff5c3c;fill-rule:nonzero;"/><path d="M271.727,348.098c-4.239,0 -7.684,-3.426 -7.704,-7.672l0,-0.117c-0.019,-4.254 3.414,-7.719 7.672,-7.739l0.032,0c4.242,0 7.687,3.43 7.707,7.672l0,0.117c0.019,4.254 -3.414,7.719 -7.672,7.739c-0.012,0 -0.024,0 -0.035,0Z" style="fill:#ff2e04;fill-rule:nonzero;"/><path d="M308.766,484.625c-4.239,0 -7.688,-3.426 -7.707,-7.672l0,-0.113c-0.02,-4.258 3.418,-7.723 7.675,-7.742l0.032,0c4.242,0 7.687,3.429 7.707,7.675l0,0.114c0.019,4.254 -3.418,7.718 -7.672,7.738c-0.012,0 -0.024,0 -0.035,0Z" style="fill:#ff2e04;fill-rule:nonzero;"/><path d="M202.645,450.117c-26.731,0 -47.668,-15.359 -47.668,-34.969c0,-19.613 20.937,-34.972 47.668,-34.972c26.73,0 47.667,15.359 47.667,34.972c0,19.61 -20.937,34.969 -47.667,34.969Zm0,-54.527c-17.485,0 -32.258,8.957 -32.258,19.558c0,10.602 14.773,19.559 32.258,19.559c17.484,0 32.257,-8.957 32.257,-19.559c0,-10.601 -14.773,-19.558 -32.257,-19.558Z" style="fill:#ff8b73;fill-rule:nonzero;"/><path d="M454.25,492.457c-2.32,0 -4.617,-1.043 -6.133,-3.027l-8.609,-11.278c-0.649,-0.851 -1.672,-1.359 -2.742,-1.359l-19.27,0c-1.039,0 -2.012,0.465 -2.672,1.269l-5.195,6.352c-2.695,3.297 -7.547,3.785 -10.844,1.09c-3.293,-2.691 -3.781,-7.547 -1.09,-10.844l5.196,-6.351c3.597,-4.403 8.921,-6.926 14.605,-6.926l19.27,0c5.839,0 11.445,2.769 14.992,7.414l8.609,11.277c2.582,3.383 1.934,8.219 -1.449,10.801c-1.395,1.066 -3.039,1.582 -4.668,1.582Z" style="fill:#ff5c3c;fill-rule:nonzero;"/><path d="M171.406,342.301c-1.715,0 -3.441,-0.567 -4.871,-1.738c-3.297,-2.696 -3.785,-7.547 -1.09,-10.844l5.192,-6.356c3.601,-4.402 8.922,-6.925 14.605,-6.925l41.586,0c5.84,0 11.445,2.773 14.992,7.414l4.43,5.804c2.582,3.383 1.934,8.219 -1.449,10.805c-3.383,2.582 -8.219,1.934 -10.801,-1.449l-4.43,-5.805c-0.648,-0.848 -1.675,-1.355 -2.742,-1.355l-41.586,0c-1.039,0 -2.015,0.461 -2.672,1.265l-5.195,6.356c-1.52,1.863 -3.734,2.828 -5.969,2.828Z" style="fill:#ff5c3c;fill-rule:nonzero;"/><clipPath id="_clip1"><polygon id="rocket-ship" points="271.389,100.402 485.464,154.12 431.746,368.196 217.67,314.477 271.389,100.402 "/></clipPath><g clip-path="url(#_clip1)"><g><path d="M334.985,314.551l9.855,-39.274l12.59,-50.174c0.464,-1.847 -0.658,-3.72 -2.506,-4.184c-1.847,-0.464 -3.72,0.658 -4.184,2.506l-22.445,89.447l-10.616,-2.664c-0.959,-0.24 -1.852,-0.608 -2.668,-1.076l-2.614,10.418c-0.464,1.848 0.657,3.72 2.506,4.184l10.035,2.518l-2.736,10.9c-0.463,1.847 0.659,3.721 2.506,4.184c1.847,0.464 3.721,-0.658 4.184,-2.505l2.735,-10.9l10.035,2.518c1.849,0.464 3.72,-0.657 4.184,-2.506l2.614,-10.417c-0.94,0.027 -1.901,-0.071 -2.859,-0.311l-10.616,-2.664Z" style="fill:#5c546a;fill-rule:nonzero;"/><path d="M402.789,355.87l4.262,-52.669c0.577,-7.127 -0.583,-14.379 -3.355,-20.974l-22.355,-53.226l-12.87,51.286l-9.671,27.683l37.807,49.71c0.486,0.636 1.165,1.07 1.907,1.256c0.581,0.146 1.203,0.143 1.807,-0.036c1.372,-0.402 2.355,-1.607 2.468,-3.03Z" style="fill:#5c546a;fill-rule:nonzero;"/><path d="M314.799,267.739l0.09,-0.575l12.941,-51.6l-44.845,36.372c-5.558,4.505 -10.004,10.351 -12.86,16.905l-21.111,48.442c-0.571,1.309 -0.273,2.834 0.746,3.837c0.448,0.442 0.995,0.739 1.577,0.885c0.741,0.186 1.545,0.124 2.274,-0.207l56.795,-25.971l4.393,-28.088Z" style="fill:#5c546a;fill-rule:nonzero;"/><path d="M385.518,133.509c0.146,0.373 0.294,0.756 0.444,1.151c-0.15,-0.394 -0.298,-0.779 -0.444,-1.151Z" style="fill:#ff4f19;fill-rule:nonzero;"/><path d="M381.341,229.001l10.632,-42.372c4.712,-18.778 -1.497,-40.112 -5.985,-51.902c2.262,5.947 4.952,14.328 6.469,23.578l-20.528,-5.151l-4.309,17.173c7.141,1.792 11.478,9.035 9.686,16.176c-1.792,7.142 -9.034,11.479 -16.176,9.687l-6.206,24.729c1.848,0.464 2.97,2.337 2.506,4.184l-12.59,50.174l23.336,5.856l-10.293,29.463l0.917,-2.626l9.671,-27.683l12.87,-51.286Z" style="fill:#ff4f19;fill-rule:nonzero;"/><path d="M314.799,267.739l0.09,-0.575l-0.09,0.575Z" style="fill:#ff4f19;fill-rule:nonzero;"/><path d="M368.29,130.225c0.318,-0.277 0.63,-0.545 0.934,-0.805c-0.304,0.26 -0.616,0.529 -0.934,0.805Z" style="fill:#e5001e;fill-rule:nonzero;"/><path d="M314.799,267.739l23.351,5.86l12.59,-50.174c0.464,-1.848 2.337,-2.97 4.184,-2.506l6.206,-24.729c-7.142,-1.792 -11.479,-9.034 -9.687,-16.176c1.792,-7.142 9.035,-11.479 16.177,-9.687l4.309,-17.173l-20.528,-5.151c5.704,-7.438 12.032,-13.556 16.834,-17.731c-9.523,8.274 -25.069,24.15 -29.781,42.928l-10.624,42.365l-12.941,51.6l-0.09,0.574Z" style="fill:#e5001e;fill-rule:nonzero;"/><path d="M368.176,281.133l-23.336,-5.856l-9.855,39.274l10.616,2.664c0.959,0.24 1.919,0.338 2.859,0.311c4.184,-0.123 7.971,-2.779 9.423,-6.93l10.293,-29.463Z" style="fill:#b6b8be;fill-rule:nonzero;"/><path d="M328.295,312.872l9.855,-39.273l-23.351,-5.86l-4.393,28.088l-0.43,2.747c-0.679,4.345 1.405,8.474 5.035,10.558c0.816,0.468 1.708,0.835 2.667,1.076l10.617,2.664l0,0Z" style="fill:#888693;fill-rule:nonzero;"/><path d="M367.62,170.327c7.137,1.791 11.477,9.039 9.686,16.176c-1.791,7.137 -9.039,11.478 -16.176,9.687c-7.137,-1.791 -11.478,-9.039 -9.687,-16.176c1.791,-7.138 9.039,-11.478 16.177,-9.687Z" style="fill:#5c546a;"/><path d="M371.929,153.154l6.497,-25.893c-3.224,-0.809 -6.662,-0.002 -9.201,2.16c-0.305,0.259 -0.617,0.527 -0.935,0.804c-0.018,0.016 -0.037,0.032 -0.054,0.047c-4.802,4.175 -11.13,10.293 -16.835,17.731l20.528,5.151Z" style="fill:#5c546a;fill-rule:nonzero;"/><path d="M392.457,158.305c-1.517,-9.25 -4.207,-17.631 -6.469,-23.578c-0.008,-0.022 -0.017,-0.046 -0.025,-0.067c-0.151,-0.394 -0.299,-0.778 -0.445,-1.15c-1.218,-3.105 -3.868,-5.44 -7.092,-6.249l-6.497,25.893l20.528,5.151Z" style="fill:#888693;fill-rule:nonzero;"/></g></g></svg>