<svg height="512pt" viewBox="-49 0 512 512" width="512pt" xmlns="http://www.w3.org/2000/svg"><path d="m414 256c0 114.324219-92.675781 207-207 207s-207-92.675781-207-207 92.675781-207 207-207 207 92.675781 207 207zm0 0" fill="#f0c48a"/><path d="m327.777344 506.128906-241.554688.007813v-210.136719c0-13.132812 10.644532-23.78125 23.78125-23.78125h193.992188c13.136718 0 23.78125 10.648438 23.78125 23.78125zm0 0" fill="#d3e6f8"/><path d="m303.996094 272.21875h-24.011719c13.132813 0 23.78125 10.648438 23.78125 23.78125v210.128906l-217.542969.007813v.003906l241.554688-.007813v-210.132812c0-13.132812-10.644532-23.78125-23.78125-23.78125zm0 0" fill="#a4cff2"/><path d="m271.222656 504.339844h-128.445312c-6.074219 0-11.042969-4.96875-11.042969-11.042969v-143.210937c0-6.074219 4.96875-11.042969 11.042969-11.042969h128.445312c6.074219 0 11.042969 4.96875 11.042969 11.042969v143.214843c0 6.070313-4.96875 11.039063-11.042969 11.039063zm0 0" fill="#fd919e"/><path d="m303.742188 234.132812h-193.484376c-13.015624 0-23.5625-10.550781-23.5625-23.5625v-139.828124c0-13.011719 10.546876-23.5625 23.5625-23.5625h193.484376c13.015624 0 23.5625 10.550781 23.5625 23.5625v139.828124c0 13.011719-10.546876 23.5625-23.5625 23.5625zm0 0" fill="#d3e6f8"/><path d="m303.742188 47.179688h-24.011719c13.011719 0 23.558593 10.550781 23.558593 23.5625v139.828124c0 13.011719-10.546874 23.5625-23.558593 23.5625h24.011719c13.015624 0 23.5625-10.550781 23.5625-23.5625v-139.828124c0-13.011719-10.546876-23.5625-23.5625-23.5625zm0 0" fill="#a4cff2"/><path d="m268.761719 199.445312h-123.523438c-7.652343 0-13.855469 6.203126-13.855469 13.855469v19.230469h151.234376v-19.230469c0-7.652343-6.203126-13.855469-13.855469-13.855469zm0 0" fill="#a4cff2"/><path d="m268.761719 199.445312h-24.015625c7.65625 0 13.859375 6.203126 13.859375 13.855469v19.230469h24.011719v-19.230469c0-7.652343-6.203126-13.855469-13.855469-13.855469zm0 0" fill="#7babf1"/><path d="m282.617188 238.394531h-151.234376c-3.238281 0-5.863281-2.625-5.863281-5.863281v-19.230469c0-10.871093 8.84375-19.71875 19.71875-19.71875h123.523438c10.875 0 19.71875 8.847657 19.71875 19.71875v19.230469c0 3.238281-2.625 5.863281-5.863281 5.863281zm-145.375-11.722656h139.515624v-13.367187c0-4.410157-3.585937-7.996094-7.996093-7.996094h-123.523438c-4.410156 0-7.996093 3.585937-7.996093 7.996094zm0 0" fill="#4c4372"/><path d="m348.308594 182.777344h-21.003906v-84.242188h21.003906c6.367187 0 11.53125 5.164063 11.53125 11.53125v61.179688c0 6.367187-5.164063 11.53125-11.53125 11.53125zm0 0" fill="#7babf1"/><path d="m300.863281 140.65625c0 19.289062-15.636719 34.925781-34.925781 34.925781-19.285156 0-34.921875-15.636719-34.921875-34.925781s15.636719-34.925781 34.921875-34.925781c19.289062 0 34.925781 15.636719 34.925781 34.925781zm0 0" fill="#fd919e"/><path d="m65.691406 182.777344h21.003906v-84.242188h-21.003906c-6.367187 0-11.53125 5.164063-11.53125 11.53125v61.179688c0 6.367187 5.164063 11.53125 11.53125 11.53125zm0 0" fill="#a4cff2"/><path d="m182.984375 140.65625c0 19.289062-15.636719 34.925781-34.921875 34.925781-19.289062 0-34.925781-15.636719-34.925781-34.925781s15.636719-34.925781 34.925781-34.925781c19.285156 0 34.921875 15.636719 34.921875 34.925781zm0 0" fill="#fd919e"/><path d="m265.9375 105.730469c-2.589844 0-5.109375.292969-7.539062.824219 15.664062 3.449218 27.386718 17.402343 27.386718 34.101562s-11.722656 30.652344-27.386718 34.101562c2.429687.53125 4.949218.824219 7.539062.824219 19.289062 0 34.925781-15.636719 34.925781-34.925781s-15.636719-34.925781-34.925781-34.925781zm0 0" fill="#e8677d"/><path d="m271.222656 339.042969h-20.664062c6.074218 0 11.039062 4.96875 11.039062 11.042969v143.214843c0 6.070313-4.964844 11.039063-11.039062 11.039063h20.664062c6.074219 0 11.042969-4.96875 11.042969-11.039063v-143.214843c0-6.074219-4.96875-11.042969-11.042969-11.042969zm0 0" fill="#e8677d"/><path d="m376.867188 30.152344c0 9.402344-7.621094 17.027344-17.027344 17.027344s-17.03125-7.625-17.03125-17.027344c0-9.40625 7.625-17.03125 17.03125-17.03125s17.027344 7.625 17.027344 17.03125zm0 0" fill="#e8677d"/><path d="m71.191406 30.152344c0 9.402344-7.625 17.027344-17.03125 17.027344s-17.027344-7.625-17.027344-17.027344c0-9.40625 7.621094-17.03125 17.027344-17.03125s17.03125 7.625 17.03125 17.03125zm0 0" fill="#fd919e"/><path d="m166.203125 232.53125h81.59375v39.6875h-81.59375zm0 0" fill="#7babf1"/><path d="m58.152344 308.339844h28.070312v52.738281h-28.070312zm0 0" fill="#7babf1"/><path d="m327.777344 308.339844h27.386718v52.738281h-27.386718zm0 0" fill="#7babf1"/><path d="m225.289062 5.863281h-36.578124c-22.820313 0-41.316407 18.5-41.316407 41.320313h119.210938c0-22.820313-18.496094-41.320313-41.316407-41.320313zm0 0" fill="#7babf1"/><path d="m152.402344 361.078125h109.195312v73.660156h-109.195312zm0 0" fill="#fff"/><path d="m242.191406 361.078125h19.40625v73.660156h-19.40625zm0 0" fill="#d3e6f8"/><path d="m173.882812 469.035156c0 5.933594-4.808593 10.742188-10.742187 10.742188-5.929687 0-10.738281-4.808594-10.738281-10.742188 0-5.929687 4.808594-10.738281 10.738281-10.738281 5.933594 0 10.742187 4.808594 10.742187 10.738281zm0 0" fill="#4c4372"/><path d="m217.738281 469.035156c0 5.933594-4.808593 10.742188-10.738281 10.742188s-10.738281-4.808594-10.738281-10.742188c0-5.929687 4.808593-10.738281 10.738281-10.738281s10.738281 4.808594 10.738281 10.738281zm0 0" fill="#4c4372"/><path d="m261.597656 469.035156c0 5.933594-4.808594 10.742188-10.738281 10.742188-5.933594 0-10.742187-4.808594-10.742187-10.742188 0-5.929687 4.808593-10.738281 10.742187-10.738281 5.929687 0 10.738281 4.808594 10.738281 10.738281zm0 0" fill="#4c4372"/><path d="m11.769531 506.136719h46.382813v-212.324219c0-12.808594-10.382813-23.195312-23.191406-23.195312-12.808594 0-23.191407 10.386718-23.191407 23.195312zm0 0" fill="#d3e6f8"/><path d="m355.847656 506.136719h46.382813v-212.324219c0-12.808594-10.382813-23.195312-23.191407-23.195312-12.808593 0-23.191406 10.386718-23.191406 23.195312zm0 0" fill="#a4cff2"/><g fill="#4c4372"><path d="m303.742188 239.992188h-193.484376c-16.226562 0-29.425781-13.199219-29.425781-29.421876v-139.828124c0-16.222657 13.199219-29.425782 29.425781-29.425782h193.484376c16.226562 0 29.425781 13.203125 29.425781 29.425782v139.828124c0 16.222657-13.199219 29.421876-29.425781 29.421876zm-193.484376-186.949219c-9.761718 0-17.699218 7.941406-17.699218 17.699219v139.828124c0 9.757813 7.9375 17.699219 17.699218 17.699219h193.484376c9.761718 0 17.699218-7.941406 17.699218-17.699219v-139.828124c0-9.757813-7.9375-17.699219-17.699218-17.699219zm0 0"/><path d="m86.695312 188.640625h-21.003906c-9.589844 0-17.394531-7.804687-17.394531-17.394531v-61.179688c0-9.589844 7.804687-17.394531 17.394531-17.394531h21.003906c3.238282 0 5.863282 2.625 5.863282 5.863281v84.242188c0 3.238281-2.625 5.863281-5.863282 5.863281zm-21.003906-84.242187c-3.125 0-5.667968 2.542968-5.667968 5.667968v61.179688c0 3.125 2.542968 5.667968 5.667968 5.667968h15.140625v-72.515624zm0 0"/><path d="m348.308594 188.640625h-21.003906c-3.238282 0-5.863282-2.625-5.863282-5.863281v-84.242188c0-3.238281 2.625-5.863281 5.863282-5.863281h21.003906c9.589844 0 17.394531 7.804687 17.394531 17.394531v61.179688c0 9.589844-7.804687 17.394531-17.394531 17.394531zm-15.140625-11.726563h15.140625c3.125 0 5.667968-2.542968 5.667968-5.667968v-61.179688c0-3.125-2.542968-5.667968-5.667968-5.667968h-15.140625zm0 0"/><path d="m148.0625 181.445312c-22.492188 0-40.789062-18.300781-40.789062-40.789062 0-22.492188 18.296874-40.789062 40.789062-40.789062 22.488281 0 40.785156 18.296874 40.785156 40.789062 0 22.488281-18.296875 40.789062-40.785156 40.789062zm0-69.851562c-16.027344 0-29.066406 13.035156-29.066406 29.0625s13.039062 29.0625 29.066406 29.0625c16.023438 0 29.0625-13.039062 29.0625-29.0625s-13.039062-29.0625-29.0625-29.0625zm0 0"/><path d="m265.9375 181.445312c-22.488281 0-40.785156-18.300781-40.785156-40.789062 0-22.492188 18.296875-40.789062 40.785156-40.789062 22.492188 0 40.789062 18.296874 40.789062 40.789062 0 22.488281-18.296874 40.789062-40.789062 40.789062zm0-69.851562c-16.023438 0-29.0625 13.035156-29.0625 29.0625s13.039062 29.0625 29.0625 29.0625c16.027344 0 29.066406-13.039062 29.066406-29.0625s-13.039062-29.0625-29.066406-29.0625zm0 0"/><path d="m247.796875 278.082031h-81.59375c-3.238281 0-5.863281-2.625-5.863281-5.863281v-39.6875c0-3.238281 2.625-5.863281 5.863281-5.863281h81.59375c3.238281 0 5.863281 2.625 5.863281 5.863281v39.6875c0 3.238281-2.625 5.863281-5.863281 5.863281zm-75.734375-11.726562h69.871094v-27.960938h-69.871094zm0 0"/><path d="m86.222656 512c-1.554687 0-3.046875-.617188-4.148437-1.71875-1.097657-1.097656-1.714844-2.589844-1.714844-4.144531v-210.136719c0-16.34375 13.296875-29.644531 29.644531-29.644531h193.992188c16.347656 0 29.644531 13.300781 29.644531 29.644531v210.128906c0 3.238282-2.625 5.863282-5.863281 5.863282zm23.78125-233.917969c-9.882812 0-17.917968 8.039063-17.917968 17.917969v204.273438l229.828124-.007813v-204.265625c0-9.878906-8.035156-17.917969-17.917968-17.917969zm0 0"/><path d="m271.222656 510.199219h-128.445312c-9.320313 0-16.90625-7.582031-16.90625-16.902344v-143.214844c0-9.320312 7.582031-16.902343 16.90625-16.902343h128.445312c9.320313 0 16.90625 7.582031 16.90625 16.902343v143.214844c-.003906 9.320313-7.585937 16.902344-16.90625 16.902344zm-128.445312-165.292969c-2.855469 0-5.179688 2.320312-5.179688 5.175781v143.214844c0 2.855469 2.324219 5.179687 5.179688 5.179687h128.445312c2.855469 0 5.179688-2.324218 5.179688-5.179687v-143.214844c0-2.855469-2.324219-5.175781-5.179688-5.175781zm0 0"/><path d="m261.597656 440.601562h-109.195312c-3.238282 0-5.863282-2.625-5.863282-5.863281v-73.660156c0-3.238281 2.625-5.863281 5.863282-5.863281h109.195312c3.238282 0 5.863282 2.625 5.863282 5.863281v73.660156c0 3.238281-2.625 5.863281-5.863282 5.863281zm-103.332031-11.722656h97.46875v-61.9375h-97.46875zm0 0"/><path d="m58.152344 512h-46.382813c-3.238281 0-5.863281-2.625-5.863281-5.863281v-212.324219c0-16.023438 13.035156-29.054688 29.054688-29.054688 16.019531 0 29.054687 13.03125 29.054687 29.054688v212.324219c0 3.238281-2.625 5.863281-5.863281 5.863281zm-40.519532-11.726562h34.65625v-206.460938c0-9.554688-7.773437-17.332031-17.328124-17.332031-9.558594 0-17.332032 7.777343-17.332032 17.332031v206.460938zm0 0"/><path d="m402.230469 512h-46.382813c-3.238281 0-5.863281-2.625-5.863281-5.863281v-212.324219c0-16.023438 13.03125-29.054688 29.054687-29.054688 16.019532 0 29.054688 13.03125 29.054688 29.054688v212.324219c0 3.238281-2.625 5.863281-5.863281 5.863281zm-40.519531-11.726562h34.65625v-206.460938c0-9.554688-7.773438-17.332031-17.328126-17.332031-9.558593 0-17.332031 7.777343-17.332031 17.332031v206.460938zm0 0"/><path d="m86.222656 366.941406h-28.070312c-3.238282 0-5.863282-2.625-5.863282-5.863281v-52.738281c0-3.238282 2.625-5.863282 5.863282-5.863282h28.070312c3.238282 0 5.863282 2.625 5.863282 5.863282v52.738281c0 3.238281-2.625 5.863281-5.863282 5.863281zm-22.207031-11.722656h16.34375v-41.019531h-16.34375zm0 0"/><path d="m355.164062 366.941406h-27.386718c-3.238282 0-5.863282-2.625-5.863282-5.863281v-52.738281c0-3.238282 2.625-5.863282 5.863282-5.863282h27.386718c3.238282 0 5.863282 2.625 5.863282 5.863282v52.738281c0 3.238281-2.625 5.863281-5.863282 5.863281zm-21.523437-11.722656h15.660156v-41.019531h-15.660156zm0 0"/><path d="m207 440.601562c-1.5 0-3-.574218-4.144531-1.714843-2.289063-2.292969-2.289063-6.003907 0-8.292969l34.207031-34.210938c2.289062-2.289062 6.003906-2.289062 8.292969 0 2.289062 2.292969 2.289062 6.003907 0 8.292969l-34.210938 34.207031c-1.144531 1.148438-2.644531 1.71875-4.144531 1.71875zm0 0"/><path d="m359.839844 53.042969c-12.625 0-22.894532-10.269531-22.894532-22.890625 0-12.625 10.269532-22.894532 22.894532-22.894532 12.621094 0 22.890625 10.269532 22.890625 22.894532 0 12.621094-10.269531 22.890625-22.890625 22.890625zm0-34.058594c-6.160156 0-11.167969 5.007813-11.167969 11.167969 0 6.15625 5.007813 11.167968 11.167969 11.167968 6.15625 0 11.167968-5.011718 11.167968-11.167968 0-6.160156-5.011718-11.167969-11.167968-11.167969zm0 0"/><path d="m58.152344 440.601562h-46.382813c-3.238281 0-5.863281-2.625-5.863281-5.863281s2.625-5.863281 5.863281-5.863281h46.382813c3.238281 0 5.863281 2.625 5.863281 5.863281s-2.625 5.863281-5.863281 5.863281zm0 0"/><path d="m402.230469 440.601562h-46.382813c-3.238281 0-5.863281-2.625-5.863281-5.863281s2.625-5.863281 5.863281-5.863281h46.382813c3.238281 0 5.863281 2.625 5.863281 5.863281s-2.625 5.863281-5.863281 5.863281zm0 0"/><path d="m266.605469 53.042969h-119.210938c-3.238281 0-5.863281-2.625-5.863281-5.863281 0-26.015626 21.164062-47.179688 47.179688-47.179688h36.578124c26.015626 0 47.179688 21.164062 47.179688 47.179688 0 3.238281-2.625 5.863281-5.863281 5.863281zm-112.867188-11.722657h106.519531c-2.800781-16.773437-17.414062-29.59375-34.96875-29.59375h-36.578124c-17.554688 0-32.167969 12.820313-34.972657 29.59375zm0 0"/><path d="m359.839844 132.5625c-3.238282 0-5.863282-2.625-5.863282-5.863281v-79.519531c0-3.238282 2.625-5.863282 5.863282-5.863282 3.238281 0 5.863281 2.625 5.863281 5.863282v79.519531c0 3.238281-2.625 5.863281-5.863281 5.863281zm0 0"/><path d="m54.160156 53.042969c-12.621094 0-22.890625-10.269531-22.890625-22.890625 0-12.625 10.269531-22.894532 22.890625-22.894532 12.625 0 22.894532 10.269532 22.894532 22.894532 0 12.621094-10.269532 22.890625-22.894532 22.890625zm0-34.058594c-6.15625 0-11.167968 5.007813-11.167968 11.167969 0 6.15625 5.011718 11.167968 11.167968 11.167968 6.160156 0 11.167969-5.011718 11.167969-11.167968 0-6.160156-5.007813-11.167969-11.167969-11.167969zm0 0"/><path d="m54.160156 132.5625c-3.238281 0-5.863281-2.625-5.863281-5.863281v-79.519531c0-3.238282 2.625-5.863282 5.863281-5.863282 3.238282 0 5.863282 2.625 5.863282 5.863282v79.519531c0 3.238281-2.625 5.863281-5.863282 5.863281zm0 0"/></g></svg>