<?xml version="1.0" encoding="UTF-8" standalone="no"?><!DOCTYPE svg PUBLIC "-//W3C//DTD SVG 1.1//EN" "http://www.w3.org/Graphics/SVG/1.1/DTD/svg11.dtd"><svg width="100%" height="100%" viewBox="0 0 512 512" version="1.1" xmlns="http://www.w3.org/2000/svg" xmlns:xlink="http://www.w3.org/1999/xlink" xml:space="preserve" xmlns:serif="http://www.serif.com/" style="fill-rule:evenodd;clip-rule:evenodd;stroke-linejoin:round;stroke-miterlimit:1.41421;"><rect x="0" y="0" width="512" height="512" style="fill:#b1ebff;"/><circle cx="256" cy="256" r="256" style="fill:#fad24d;"/><ellipse cx="256" cy="421.64" rx="182.28" ry="14.369" style="fill:#edb937;"/><path d="M65.982,67.222l380.036,0c12.486,0 22.7,10.217 22.7,22.703l0,234.105l-425.436,0l0,-234.105c0,-12.486 10.214,-22.703 22.7,-22.703Z" style="fill:#666;fill-rule:nonzero;"/><path d="M58.695,308.614l394.607,0l0,-218.692c0,-3.979 -3.308,-7.287 -7.287,-7.287l-380.036,0c-3.976,0 -7.287,3.308 -7.287,7.287l0,218.693l0.003,-0.001Z" style="fill:#15bdb2;fill-rule:nonzero;"/><g><path d="M468.718,324.03l0,24.826c0,12.489 -11.261,22.703 -25.026,22.703l-375.387,0c-13.765,0 -25.026,-10.214 -25.026,-22.703l0,-24.826l425.439,0Z" style="fill:#fff;fill-rule:nonzero;"/><path d="M144.153,234.3l-12.863,0l-2.201,-14.717l-15.643,0l-2.201,14.717l-11.705,0l12.979,-81.119l18.657,0l12.979,81.119l-0.002,0Zm-29.089,-25.727l12.284,0l-6.14,-41.024l-6.144,41.024Z" style="fill:#fff;fill-rule:nonzero;"/><path d="M168.837,153.181c6.413,0 11.182,1.7 14.314,5.099c3.129,3.399 4.693,8.384 4.693,14.951l0,10.544c0,6.568 -1.563,11.549 -4.693,14.949c-3.129,3.399 -7.901,5.099 -14.314,5.099l-6.025,0l0,30.476l-12.748,0l0,-81.119l18.773,0l0,0.001Zm-6.025,11.588l0,27.465l6.025,0c2.009,0 3.554,-0.54 4.635,-1.624c1.081,-1.081 1.621,-3.09 1.621,-6.025l0,-12.168c0,-2.935 -0.54,-4.944 -1.621,-6.025c-1.083,-1.081 -2.628,-1.621 -4.635,-1.621l-6.025,0l0,-0.002Z" style="fill:#fff;fill-rule:nonzero;"/><rect x="193.75" y="153.181" width="12.748" height="81.119" style="fill:#fff;fill-rule:nonzero;"/><path d="M367.541,206.507l4.024,-15.339l-9.107,-3.575c0.307,-3.438 0.288,-6.901 -0.055,-10.34l9.073,-3.67l-4.184,-15.295l-9.663,1.458c-1.437,-3.101 -3.179,-6.091 -5.228,-8.932l6.02,-7.709l-11.274,-11.155l-7.646,6.101c-2.861,-2.02 -5.872,-3.733 -8.983,-5.136l1.358,-9.679l-15.339,-4.024l-3.575,9.107c-3.438,-0.307 -6.903,-0.291 -10.34,0.055l-3.667,-9.073l-15.297,4.184l1.458,9.663l0.005,-0.002c-3.098,1.435 -6.091,3.179 -8.932,5.228l-7.709,-6.022l-11.155,11.274l6.101,7.646c-2.02,2.861 -3.733,5.87 -5.136,8.983l-9.679,-1.358l-4.024,15.339l9.107,3.575c-0.307,3.438 -0.288,6.901 0.055,10.34l-9.073,3.667l4.184,15.297l9.66,-1.458c1.437,3.098 3.179,6.091 5.228,8.932l-6.02,7.709l11.272,11.155l7.646,-6.101c2.858,2.02 5.87,3.733 8.983,5.136l-1.358,9.676l15.339,4.026l3.575,-9.107c3.438,0.307 6.901,0.288 10.34,-0.055l3.67,9.073l15.295,-4.184l-1.458,-9.66c3.101,-1.437 6.091,-3.179 8.932,-5.228l7.709,6.02l11.155,-11.271l-6.101,-7.646c2.02,-2.858 3.733,-5.87 5.136,-8.983l9.678,1.358Zm-41.701,-6.225c-9.713,9.813 -25.538,9.894 -35.35,0.184c-9.813,-9.713 -9.895,-25.537 -0.184,-35.35c9.713,-9.813 25.538,-9.894 35.35,-0.184c9.813,9.713 9.894,25.538 0.184,35.35Z" style="fill:#fff;fill-rule:nonzero;"/></g><path d="M308.071,150.421c-17.826,0 -32.279,14.45 -32.279,32.279c0,17.826 14.451,32.279 32.279,32.279c17.826,0 32.279,-14.451 32.279,-32.279c0,-17.826 -14.45,-32.279 -32.279,-32.279Zm17.769,49.863c-9.713,9.813 -25.538,9.894 -35.35,0.184c-9.813,-9.712 -9.895,-25.537 -0.184,-35.35c9.713,-9.813 25.538,-9.894 35.35,-0.184c9.813,9.713 9.894,25.538 0.184,35.35Z" style="fill:#ecf0f1;fill-rule:nonzero;"/><path d="M417.06,242.49c0.098,-1.815 0.006,-3.649 -0.285,-5.477l5.244,-2.987l-5.957,-12.386l-5.65,2.028c-1.236,-1.38 -2.605,-2.605 -4.076,-3.67l1.598,-5.821l-12.971,-4.546l-2.563,5.429c-1.815,-0.098 -3.649,-0.006 -5.477,0.285l-2.986,-5.241l-12.386,5.959l2.028,5.647c-1.377,1.236 -2.605,2.605 -3.67,4.076l-5.821,-1.598l-4.546,12.971l5.429,2.565c-0.097,1.812 -0.008,3.649 0.283,5.474l-5.244,2.987l5.957,12.386l5.65,-2.028c1.238,1.377 2.607,2.605 4.076,3.67l-1.595,5.821l12.971,4.546l2.563,-5.432c1.812,0.1 3.649,0.008 5.477,-0.283l2.985,5.244l12.386,-5.957l-2.028,-5.647c1.38,-1.239 2.605,-2.608 3.67,-4.079l5.821,1.598l4.546,-12.971l-5.429,-2.563Zm-16.328,8.23c-5.309,5.367 -13.963,5.408 -19.329,0.1c-5.363,-5.31 -5.408,-13.963 -0.1,-19.329c5.309,-5.365 13.963,-5.408 19.329,-0.1c5.365,5.311 5.409,13.962 0.1,19.329Z" style="fill:#fff;fill-rule:nonzero;"/><path d="M391.016,221.639c-10.752,0 -19.468,8.716 -19.468,19.468c0,10.752 8.716,19.468 19.468,19.468c10.752,0 19.468,-8.716 19.468,-19.468c0,-10.752 -8.716,-19.468 -19.468,-19.468Zm9.714,29.081c-5.309,5.365 -13.963,5.408 -19.326,0.1c-5.366,-5.309 -5.411,-13.963 -0.103,-19.326l0,-0.003c5.312,-5.367 13.963,-5.411 19.329,-0.1c5.365,5.308 5.409,13.962 0.1,19.329Z" style="fill:#ecf0f1;fill-rule:nonzero;"/><circle cx="256" cy="346.8" r="7.814" style="fill:#b6b6b8;"/><path d="M305.065,407.271l36.095,11.564l-170.324,0l29.123,-11.564l0,-35.712l105.104,0l0,35.712l0.002,0Z" style="fill:#c2c2c4;fill-rule:nonzero;"/><path d="M305.065,407.271l-105.104,-35.712l105.104,0l0,35.712Z" style="fill:#b6b6b8;fill-rule:nonzero;"/><path d="M199.959,407.271l105.104,0l36.095,11.564l0,4.981l-85.161,0l-85.163,0l0,-4.981l29.123,-11.564l0.002,0Z" style="fill:#ecf0f1;fill-rule:nonzero;"/></svg>