<?xml version="1.0" encoding="UTF-8" standalone="no"?><!DOCTYPE svg PUBLIC "-//W3C//DTD SVG 1.1//EN" "http://www.w3.org/Graphics/SVG/1.1/DTD/svg11.dtd"><svg width="100%" height="100%" viewBox="0 0 1920 1080" version="1.1" xmlns="http://www.w3.org/2000/svg" xmlns:xlink="http://www.w3.org/1999/xlink" xml:space="preserve" xmlns:serif="http://www.serif.com/" style="fill-rule:evenodd;clip-rule:evenodd;stroke-linejoin:round;stroke-miterlimit:1.41421;"><path d="M462.095,529.831c-10.908,0 -21.496,1.105 -31.584,3.172c-18.079,-20.635 -48.235,-34.15 -82.397,-34.15c-11.098,0 -21.752,1.445 -31.731,4.077c-16.82,-58.821 -83.312,-102.762 -162.827,-102.762c-92.219,0 -166.976,59.08 -166.976,131.959c0,1.504 0.083,2.992 0.14,4.476c-11.736,-2.907 -24.221,-4.476 -37.169,-4.476c-68.559,0 -124.141,43.917 -124.141,98.112c0,54.18 55.584,98.101 124.141,98.101l512.549,0c69.367,0 125.603,-44.439 125.603,-99.254c-0.005,-54.819 -56.24,-99.255 -125.608,-99.255Z" style="fill:url(#_Linear1);fill-rule:nonzero;"/><path d="M-36.291,622.636c0,0 521.184,-75.525 762.293,233.441c0,0 72.404,-95.977 171.469,-42.104c0,0 127.51,-173.682 284.445,-19.689c0,0 211.862,-302.525 553.195,-144.397c0,0 76.506,-98.853 184.889,-84.14l0,535.54l-1920,1.962l-36.291,-480.613Z" style="fill:url(#_Linear2);"/><path d="M1447.84,728.34c0,0 16.675,210.988 -119.663,260.58l75.525,91.08l222.652,0l32.367,-91.08c0,0 -110.835,-69.543 -111.816,-260.58l-99.065,0Z" style="fill:url(#_Linear3);"/><path d="M1441.84,689.34c0,0 16.675,210.988 -119.663,260.58l75.525,91.08l222.652,0l32.367,-91.08c0,0 -110.835,-69.543 -111.816,-260.58l-99.065,0Z" style="fill:url(#_Linear4);"/><path d="M1482.43,699.786c0,0 7.008,237.056 -50.285,292.776l31.737,102.333l93.565,0l13.602,-102.333c0,0 -46.576,-78.136 -46.989,-292.776l-41.63,0Z" style="fill:url(#_Linear5);"/><path d="M1459.97,689.34c0,0 8.946,202.591 -64.202,250.21l40.521,87.455l119.458,0l17.366,-87.455c0,0 -59.466,-66.776 -59.992,-250.21l-53.151,0Z" style="fill:url(#_Linear6);"/><path d="M1119.14,1080c0,0 124.567,-164.092 351.141,-144.475c0,0 141.242,-92.199 240.307,14.713c0,0 22.559,-158.897 209.41,-139.28l0,269.042l-800.858,0" style="fill:url(#_Linear7);"/><path d="M0.064,925.716c6.029,0 321.565,-124.965 555.704,154.284c0,0 105.514,-178.804 315.535,-89.548c0,0 58.284,-91.218 141.69,-37.272c0,0 202.988,-32.766 214.042,126.82l-1226.97,0c0,0 -6.029,-154.284 0,-154.284Z" style="fill:url(#_Linear8);"/><clipPath id="_clip9"><polygon id="rocket" points="1275,583.582 1503.66,361.168 1726.07,589.827 1497.41,812.241 1275,583.582 "/></clipPath><g clip-path="url(#_clip9)"><path d="M1551.19,671.782c0.933,3.12 1.643,6.371 2.131,9.575c0.693,4.493 0.987,8.937 0.924,13.465c-0.289,20.862 -8.7,41.568 -25.344,57.231c-3.328,-3.331 -6.252,-6.968 -8.865,-10.645c-3.826,13.355 -11.147,25.907 -22.168,36.276c-10.684,-10.714 -17.656,-23.464 -21.155,-36.875c-2.714,3.603 -5.738,7.157 -9.2,10.35c-19.574,-19.584 -27.018,-46.325 -22.454,-71.346c0.577,-3.188 1.376,-6.418 2.396,-9.512c0.174,0.269 0.392,0.583 0.565,0.851c5.787,-4.315 12.141,-7.867 18.971,-10.57c4.465,-1.803 9.057,-3.204 13.866,-4.203c6.011,-1.293 12.235,-1.917 18.627,-1.829c6.392,0.089 12.552,0.929 18.525,2.388c4.779,1.131 9.376,2.616 13.789,4.542c6.752,2.89 13.005,6.617 18.67,11.091c0.359,-0.261 0.54,-0.525 0.722,-0.789Z" style="fill:url(#_Linear10);fill-rule:nonzero;"/><path d="M1531.93,661.526c5.633,10.023 8.584,21.34 8.422,33.059c-0.178,12.872 -4.078,25.161 -11.105,35.674l-14.589,-20.491l-8.021,27.77c-1.821,6.501 -4.703,12.632 -8.467,18.307c-3.561,-5.732 -6.227,-11.984 -7.956,-18.534l-7.249,-27.982l-15.151,20.08c-6.733,-10.704 -10.291,-23.096 -10.113,-35.969c0.162,-11.718 3.426,-22.95 9.334,-32.813c4.464,-1.803 9.057,-3.204 13.865,-4.203c6.012,-1.293 12.236,-1.917 18.628,-1.829c6.392,0.089 12.551,0.929 18.525,2.388c4.868,1.133 9.464,2.617 13.877,4.543Z" style="fill:url(#_Linear11);fill-rule:nonzero;"/><path d="M1587.71,724.365c0.208,-2.128 0.372,-4.39 0.359,-6.655c0.309,-22.283 -7.577,-42.726 -20.899,-58.582c-16.072,-19.224 -40.14,-31.634 -67.217,-32.008c-27.077,-0.375 -51.435,11.319 -68.078,30.135c-13.711,15.437 -22.204,35.698 -22.513,57.981c-0.031,2.219 0.071,4.485 0.174,6.662c-14.605,-19.337 -23.195,-43.475 -22.833,-69.575c0.338,-24.414 8.374,-46.856 21.723,-65.096c20.861,-28.436 54.678,-46.703 92.674,-46.177c37.908,0.525 71.294,19.723 91.36,48.725c12.883,18.648 20.294,41.304 19.913,65.672c-0.273,26.102 -9.528,49.992 -24.663,68.918Z" style="fill:#41596b;fill-rule:nonzero;"/><path d="M1592.55,589.777c-4.727,23.953 -13.088,47.412 -25.29,69.352c-16.072,-19.224 -40.141,-31.633 -67.218,-32.008c-27.076,-0.375 -51.434,11.319 -68.077,30.135c-11.634,-22.315 -19.342,-45.997 -23.36,-70.026c20.86,-28.436 54.677,-46.703 92.674,-46.177c37.818,0.523 71.205,19.721 91.271,48.724Z" style="fill:#334a5e;fill-rule:nonzero;"/><path d="M1550.65,672.573c-9.443,-7.367 -20.423,-12.802 -32.46,-15.633c-5.973,-1.459 -12.177,-2.255 -18.569,-2.344c-6.392,-0.088 -12.616,0.536 -18.628,1.829c-12.11,2.496 -23.236,7.625 -32.88,14.729c-49.317,-77.534 -47.705,-177.893 4.314,-253.801c8.518,-12.402 18.359,-24.164 29.61,-35.107l21.646,-21.056l21.055,21.647c10.9,11.205 20.456,23.28 28.627,35.914c49.897,77.319 48.729,177.684 -2.715,253.822Z" style="fill:#f2705b;fill-rule:nonzero;"/><path d="M1502.32,459.288c-27.876,-0.386 -50.782,21.895 -51.168,49.771c-0.193,13.938 5.269,26.667 14.331,35.893c9.019,9.182 21.546,15.038 35.396,15.23c13.849,0.192 26.532,-5.226 35.802,-14.155c9.359,-9.016 15.172,-21.589 15.321,-35.572c0.475,-27.874 -21.806,-50.781 -49.682,-51.167Z" style="fill:#fff;fill-rule:nonzero;"/><path d="M1478.21,485.637c13.288,-12.925 34.57,-12.631 47.495,0.657c12.925,13.289 12.631,34.571 -0.657,47.496c-13.289,12.925 -34.571,12.63 -47.496,-0.658c-12.925,-13.288 -12.63,-34.57 0.658,-47.495Z" style="fill:#89d6f7;"/><path d="M1500.5,591.299c-15.847,31.879 -16.567,83.902 -1.608,116.119c15.802,-31.835 16.566,-83.813 1.608,-116.119Z" style="fill:#41596b;fill-rule:nonzero;"/><path d="M1553.36,418.751l-100.938,-1.398c8.518,-12.402 18.359,-24.164 29.61,-35.107l21.646,-21.056l21.055,21.647c10.9,11.205 20.456,23.28 28.627,35.914Z" style="fill:#334a5e;fill-rule:nonzero;"/></g><defs><linearGradient id="_Linear1" x1="0" y1="0" x2="1" y2="0" gradientUnits="userSpaceOnUse" gradientTransform="matrix(762.293,0,0,328.172,-174.59,564.254)"><stop offset="0" style="stop-color:#cfdcff;stop-opacity:1"/><stop offset="1" style="stop-color:#ffe9e9;stop-opacity:1"/></linearGradient><linearGradient id="_Linear2" x1="0" y1="0" x2="1" y2="0" gradientUnits="userSpaceOnUse" gradientTransform="matrix(2.45229,-598.137,598.137,2.45229,858.237,1080)"><stop offset="0" style="stop-color:#ffe1e4;stop-opacity:1"/><stop offset="1" style="stop-color:#afe4fd;stop-opacity:1"/></linearGradient><linearGradient id="_Linear3" x1="0" y1="0" x2="1" y2="0" gradientUnits="userSpaceOnUse" gradientTransform="matrix(330.544,0,0,351.66,1328.17,904.17)"><stop offset="0" style="stop-color:#ffd8d8;stop-opacity:1"/><stop offset="1" style="stop-color:#fff;stop-opacity:0"/></linearGradient><linearGradient id="_Linear4" x1="0" y1="0" x2="1" y2="0" gradientUnits="userSpaceOnUse" gradientTransform="matrix(330.544,0,0,351.66,1322.17,865.17)"><stop offset="0" style="stop-color:#ffd8d8;stop-opacity:1"/><stop offset="1" style="stop-color:#fff;stop-opacity:0"/></linearGradient><linearGradient id="_Linear5" x1="0" y1="0" x2="1" y2="0" gradientUnits="userSpaceOnUse" gradientTransform="matrix(1.24974e-14,-211.278,204.098,1.29371e-14,1501.59,933.243)"><stop offset="0" style="stop-color:#f8cdcd;stop-opacity:0.360784"/><stop offset="1" style="stop-color:#fff;stop-opacity:0"/></linearGradient><linearGradient id="_Linear6" x1="0" y1="0" x2="1" y2="0" gradientUnits="userSpaceOnUse" gradientTransform="matrix(177.345,0,0,337.665,1395.77,858.172)"><stop offset="0" style="stop-color:#f8cdcd;stop-opacity:1"/><stop offset="1" style="stop-color:#fff;stop-opacity:0"/></linearGradient><linearGradient id="_Linear7" x1="0" y1="0" x2="1" y2="0" gradientUnits="userSpaceOnUse" gradientTransform="matrix(800.858,0,0,270.72,1119.14,944.64)"><stop offset="0" style="stop-color:#fab3b3;stop-opacity:1"/><stop offset="1" style="stop-color:#c9e1f4;stop-opacity:1"/></linearGradient><linearGradient id="_Linear8" x1="0" y1="0" x2="1" y2="0" gradientUnits="userSpaceOnUse" gradientTransform="matrix(1229.65,-6.82593e-14,1.01119e-14,182.159,-2.61558,988.92)"><stop offset="0" style="stop-color:#d2f6ff;stop-opacity:0.227451"/><stop offset="1" style="stop-color:#f7c8c8;stop-opacity:1"/></linearGradient><linearGradient id="_Linear10" x1="0" y1="0" x2="1" y2="0" gradientUnits="userSpaceOnUse" gradientTransform="matrix(82.6758,-80.4175,80.4638,82.7234,1457.58,740.953)"><stop offset="0" style="stop-color:#ff4f00;stop-opacity:0.85098"/><stop offset="1" style="stop-color:#f6c64b;stop-opacity:1"/></linearGradient><linearGradient id="_Linear11" x1="0" y1="0" x2="1" y2="0" gradientUnits="userSpaceOnUse" gradientTransform="matrix(66.8742,-65.0476,65.0476,66.8742,1465.58,727.113)"><stop offset="0" style="stop-color:#ff4f00;stop-opacity:0.85098"/><stop offset="1" style="stop-color:#f6c64b;stop-opacity:1"/></linearGradient></defs></svg>