<?xml version="1.0" encoding="UTF-8" standalone="no"?><!DOCTYPE svg PUBLIC "-//W3C//DTD SVG 1.1//EN" "http://www.w3.org/Graphics/SVG/1.1/DTD/svg11.dtd"><svg width="100%" height="100%" viewBox="0 0 1920 1080" version="1.1" xmlns="http://www.w3.org/2000/svg" xmlns:xlink="http://www.w3.org/1999/xlink" xml:space="preserve" xmlns:serif="http://www.serif.com/" style="fill-rule:evenodd;clip-rule:evenodd;stroke-linejoin:round;stroke-miterlimit:1.41421;"><path d="M428.685,489.876c-10.908,0 -21.496,1.105 -31.584,3.172c-18.079,-20.635 -48.235,-34.15 -82.397,-34.15c-11.098,0 -21.752,1.445 -31.731,4.077c-16.82,-58.821 -83.312,-102.762 -162.827,-102.762c-92.219,0 -166.976,59.08 -166.976,131.959c0,1.504 0.083,2.992 0.14,4.476c-11.736,-2.907 -24.221,-4.476 -37.169,-4.476c-68.559,0 -124.141,43.917 -124.141,98.112c0,54.18 55.584,98.101 124.141,98.101l512.549,0c69.367,0 125.603,-44.439 125.603,-99.254c-0.005,-54.819 -56.24,-99.255 -125.608,-99.255Z" style="fill:url(#_Linear1);fill-rule:nonzero;"/><path d="M-36.291,622.636c0,0 521.184,-75.525 762.293,233.441c0,0 72.404,-95.977 171.469,-42.104c0,0 127.51,-173.682 284.445,-19.689c0,0 211.862,-302.525 553.195,-144.397c0,0 76.506,-98.853 184.889,-84.14l0,535.54l-1920,1.962l-36.291,-480.613Z" style="fill:url(#_Linear2);"/><path d="M-208,786.835c0,0 447.429,-81.616 669.909,138.893c0,0 66.81,-68.499 158.22,-30.049c0,0 71.438,21.92 0,0c-87.625,-26.889 -154.323,33.971 -158.22,30.049c-265.258,-266.911 -669.909,-138.893 -669.909,-138.893Z" style="fill:#fff;fill-opacity:0.145098;"/><path d="M1638.33,869.795c0,0 36.508,-60.548 119.2,-36.043c0,0 -76.217,-38.801 -109.189,31.3l-10.011,4.743Z" style="fill:#fff;fill-opacity:0.203922;"/><path d="M1119.14,1080c0,0 124.567,-164.092 351.141,-144.475c0,0 141.242,-92.199 240.307,14.713c0,0 22.559,-158.897 209.41,-139.28l0,269.042l-800.858,0" style="fill:url(#_Linear3);"/><path d="M-2.615,560.088c0,0 135.497,-244.894 228.356,29.122c0,0 -91.588,-240.211 -228.356,-29.122l0,0Z" style="fill:#fff;fill-opacity:0.203922;"/><path d="M0.064,925.716c6.029,0 321.565,-124.965 555.704,154.284c0,0 105.514,-178.804 315.535,-89.548c0,0 58.284,-91.218 141.69,-37.272c0,0 202.988,-32.766 214.042,126.82l-1226.97,0c0,0 -6.029,-154.284 0,-154.284l-0.001,0Z" style="fill:url(#_Linear4);"/><path d="M1837.32,1002.29c0,0 -219.949,-63.293 -348.749,77.651c0,0 -28.108,-51.46 -76.937,-29.856c0,0 -37.521,11.226 0,0c46.025,-13.769 74.385,31.715 76.937,29.856c175.969,-128.157 348.749,-77.651 348.749,-77.651Z" style="fill:#fff;fill-opacity:0.145098;"/><path d="M546.799,1096.94c0,0 108.725,-199.427 316.724,-112.66c0,0 -188.673,-72.22 -289.79,102.92l-26.934,9.74Z" style="fill:#fff;fill-opacity:0.266667;"/><path d="M193.843,574.709c0,0 123.075,-129.782 228.57,27.134c0,0 -102.612,-138.045 -228.57,-27.134l0,0Z" style="fill:#fff;fill-opacity:0.203922;"/><path d="M1216.82,978.437c0,0 87.088,-302.425 363.361,-119.457c0,0 -257.759,-153.92 -363.361,119.457l0,0Z" style="fill:#fff;fill-opacity:0.203922;"/><path d="M1470.89,833.752c0,0 56.623,-169.661 218.591,-72.101c0,0 -151.373,-81.679 -218.591,72.101l0,0Z" style="fill:#fff;fill-opacity:0.203922;"/><path d="M1007.24,934.989c0,0 99.375,-155.795 248.744,-28.681c0,0 -141.796,-109.465 -248.744,28.681l0,0Z" style="fill:#fff;fill-opacity:0.203922;"/><path d="M818.73,869.397c0,0 58.975,-38.997 123.124,18.651c0,0 -52.162,-67.776 -112.047,-18.634l-11.077,-0.017Z" style="fill:#fff;fill-opacity:0.203922;"/><defs><linearGradient id="_Linear1" x1="0" y1="0" x2="1" y2="0" gradientUnits="userSpaceOnUse" gradientTransform="matrix(762.293,0,0,762.293,-208,524.299)"><stop offset="0" style="stop-color:#cfdcff;stop-opacity:1"/><stop offset="1" style="stop-color:#ffe9e9;stop-opacity:1"/></linearGradient><linearGradient id="_Linear2" x1="0" y1="0" x2="1" y2="0" gradientUnits="userSpaceOnUse" gradientTransform="matrix(2.45229,-598.137,598.137,2.45229,858.237,1080)"><stop offset="0" style="stop-color:#ffe1e4;stop-opacity:1"/><stop offset="1" style="stop-color:#afe4fd;stop-opacity:1"/></linearGradient><linearGradient id="_Linear3" x1="0" y1="0" x2="1" y2="0" gradientUnits="userSpaceOnUse" gradientTransform="matrix(800.858,0,0,800.858,1119.14,944.64)"><stop offset="0" style="stop-color:#fab3b3;stop-opacity:1"/><stop offset="1" style="stop-color:#c9e1f4;stop-opacity:1"/></linearGradient><linearGradient id="_Linear4" x1="0" y1="0" x2="1" y2="0" gradientUnits="userSpaceOnUse" gradientTransform="matrix(1229.65,-1.13687e-13,1.13687e-13,1229.65,-2.61558,988.92)"><stop offset="0" style="stop-color:#d2f6ff;stop-opacity:0.227451"/><stop offset="1" style="stop-color:#f7c8c8;stop-opacity:1"/></linearGradient></defs></svg>