<?xml version="1.0" encoding="UTF-8" standalone="no"?><!DOCTYPE svg PUBLIC "-//W3C//DTD SVG 1.1//EN" "http://www.w3.org/Graphics/SVG/1.1/DTD/svg11.dtd"><svg width="100%" height="100%" viewBox="0 0 512 512" version="1.1" xmlns="http://www.w3.org/2000/svg" xmlns:xlink="http://www.w3.org/1999/xlink" xml:space="preserve" xmlns:serif="http://www.serif.com/" style="fill-rule:evenodd;clip-rule:evenodd;stroke-linejoin:round;stroke-miterlimit:1.41421;"><g id="flat"><rect x="0" y="0" width="512" height="512" style="fill:#7fcac9;"/><rect x="0" y="0" width="141.241" height="70.621" style="fill:#ffd782;"/><rect x="141.241" y="0" width="370.759" height="70.621" style="fill:#3b73a5;"/><rect x="35.31" y="105.931" width="229.517" height="141.241" style="fill:#3b73a5;"/><circle cx="150.069" cy="176.552" r="70.621" style="fill:#f4f4e6;"/><rect x="26.483" y="26.483" width="17.655" height="17.655" style="fill:#3b73a5;"/><rect x="61.793" y="26.483" width="17.655" height="17.655" style="fill:#3b73a5;"/><rect x="97.103" y="26.483" width="17.655" height="17.655" style="fill:#3b73a5;"/><rect x="300.138" y="335.448" width="176.552" height="141.241" style="fill:#e37f46;"/><rect x="300.138" y="105.931" width="176.552" height="35.31" style="fill:#d1f5c9;"/><rect x="300.138" y="176.552" width="176.552" height="35.31" style="fill:#d1f5c9;"/><rect x="300.138" y="247.172" width="176.552" height="35.31" style="fill:#d1f5c9;"/><rect x="379.586" y="141.241" width="17.655" height="35.31" style="fill:#fff;"/><rect x="379.586" y="211.862" width="17.655" height="35.31" style="fill:#fff;"/><rect x="379.586" y="282.483" width="17.655" height="52.966" style="fill:#fff;"/><path d="M300.138,335.448l176.552,141.242l0,-141.242l-176.552,0Z" style="fill:#ffd782;fill-rule:nonzero;"/><path d="M132.414,203.034l0,-52.965l52.965,26.483l-52.965,26.482Z" style="fill:#da1c4b;fill-rule:nonzero;"/><rect x="35.31" y="423.724" width="88.276" height="52.966" style="fill:#d1f5c9;"/><rect x="158.897" y="423.724" width="88.276" height="52.966" style="fill:#d1f5c9;"/><rect x="26.483" y="273.655" width="158.897" height="17.655" style="fill:#fff;"/><rect x="203.034" y="273.655" width="17.655" height="17.655" style="fill:#fff;"/><rect x="26.483" y="308.966" width="70.621" height="17.655" style="fill:#fff;"/><rect x="114.759" y="308.966" width="17.655" height="17.655" style="fill:#fff;"/><rect x="150.069" y="308.966" width="123.586" height="17.655" style="fill:#fff;"/><rect x="26.483" y="344.276" width="247.172" height="17.655" style="fill:#fff;"/><rect x="26.483" y="379.586" width="70.621" height="17.655" style="fill:#fff;"/><rect x="114.759" y="379.586" width="17.655" height="17.655" style="fill:#fff;"/><rect x="150.069" y="379.586" width="35.31" height="17.655" style="fill:#fff;"/><rect x="203.034" y="379.586" width="17.655" height="17.655" style="fill:#fff;"/></g></svg>