<?xml version="1.0" encoding="iso-8859-1"?>
<!-- Generator: Adobe Illustrator 19.0.0, SVG Export Plug-In . SVG Version: 6.00 Build 0)  -->
<svg xmlns="http://www.w3.org/2000/svg" xmlns:xlink="http://www.w3.org/1999/xlink" version="1.1" id="Layer_1" x="0px" y="0px" viewBox="0 0 512 512" style="enable-background:new 0 0 512 512;" xml:space="preserve" width="512" height="512">
<linearGradient id="SVGID_1_" gradientUnits="userSpaceOnUse" x1="256" y1="-1.515218e-009" x2="256" y2="512">
	<stop offset="0" style="stop-color:#2AF598"/>
	<stop offset="1" style="stop-color:#009EFD"/>
</linearGradient>
<path style="fill:url(#SVGID_1_);" d="M443.804,307.88c-4.252,15.397-10.406,30.188-18.388,44.19l34.875,60.573l-47.646,47.647  l-60.574-34.876c-14.004,7.982-28.794,14.137-44.192,18.389L289.739,512h-67.479l-18.14-68.196  c-15.398-4.252-30.188-10.406-44.192-18.389l-60.574,34.876l-47.646-47.647l34.876-60.573  c-7.982-14.003-14.137-28.793-18.389-44.191L0,289.74v-67.48l68.196-18.139c4.251-15.397,10.406-30.188,18.389-44.191L51.709,99.355  l47.646-47.647l60.575,34.877c14.004-7.982,28.793-14.137,44.191-18.389L222.261,0h67.479l18.14,68.196  c18.468,5.1,36.059,12.94,52.469,23.386l-27.195,30.279c-14.283-8.264-29.581-14.126-45.599-17.442l-12.098-2.504L258.988,40h-5.977  l-16.468,61.915l-12.098,2.504c-18.907,3.914-36.817,11.362-53.232,22.14l-10.289,6.755l-54.961-31.645l-4.293,4.294l31.645,54.961  l-6.755,10.289c-10.778,16.416-18.227,34.325-22.14,53.231l-2.504,12.099L40,253.012v5.977l61.915,16.469l2.504,12.099  c3.914,18.907,11.363,36.817,22.14,53.231l6.755,10.289l-31.644,54.96l4.293,4.294l54.96-31.644l10.289,6.755  c16.415,10.777,34.325,18.227,53.232,22.14l12.099,2.504L253.012,472h5.977l16.468-61.915l12.099-2.504  c18.907-3.913,36.817-11.362,53.232-22.14l10.289-6.755l54.96,31.644l4.294-4.294l-31.644-54.96l6.755-10.289  c10.776-16.414,18.226-34.324,22.14-53.232l2.505-12.098L472,258.988v-5.977l-61.914-16.469l-2.504-12.099  c-0.325-1.571-0.684-3.132-1.058-4.689l30.981-34.494c2.418,6.175,4.533,12.461,6.3,18.86L512,222.26v67.48L443.804,307.88z   M172.777,204.677l-27.555,28.996l105.227,99.995L472.36,86.592l-29.759-26.729l-194.42,216.469L172.777,204.677z"/>















</svg>
