<?xml version="1.0" encoding="UTF-8" standalone="no"?><!DOCTYPE svg PUBLIC "-//W3C//DTD SVG 1.1//EN" "http://www.w3.org/Graphics/SVG/1.1/DTD/svg11.dtd"><svg width="100%" height="100%" viewBox="0 0 512 512" version="1.1" xmlns="http://www.w3.org/2000/svg" xmlns:xlink="http://www.w3.org/1999/xlink" xml:space="preserve" xmlns:serif="http://www.serif.com/" style="fill-rule:evenodd;clip-rule:evenodd;stroke-linejoin:round;stroke-miterlimit:1.41421;"><rect x="-8.237" y="0" width="532.78" height="512" style="fill:#ffde90;"/><ellipse cx="256.562" cy="267" rx="245.329" ry="245" style="fill:#52bbef;"/><path d="M437.7,237.49l-9.909,-7.389l0,36.82l17.926,-10.502l0,-2.952c0,-5.499 -3.608,-12.69 -8.017,-15.977Z" style="fill:#ffd00d;fill-rule:nonzero;"/><path d="M422.791,176.49l-21.999,0l0,106.25l26.999,-15.818l0,-85.432c0,-2.75 -2.25,-5 -5,-5Z" style="fill:#eef6ff;fill-rule:nonzero;"/><path d="M396.792,0l-281.584,0c-2.75,0 -5,2.25 -5,5l0,55.026c9.071,6.33 15.022,16.837 15.022,28.713l0,37.094l8.203,0c2.757,0 4.999,2.242 4.999,4.999l0,25.798c0,2.757 -2.242,5 -4.999,5l-23.226,0l0,36.149c14.456,8.514 24.184,24.232 24.184,42.189c0,17.955 -9.727,33.673 -24.182,42.188l129.417,75.823c7.665,-5.573 12.329,-8.965 12.329,-8.965c2.224,-1.617 5.864,-1.617 8.088,0c0,0 4.664,3.392 12.329,8.965l129.419,-75.824l0,-277.155c0.001,-2.75 -2.249,-5 -4.999,-5Z" style="fill:#d9eafc;fill-rule:nonzero;"/><g><path d="M110.21,282.155l22.684,13.29l0,-43.458c-3.249,12.814 -11.568,23.62 -22.684,30.168Z" style="fill:#aec1ed;fill-rule:nonzero;"/><path d="M125.23,88.739l0,37.094l7.663,0l0,-120.833c0,-2.75 2.25,-5 5,-5l-22.686,0c-2.75,0 -5,2.25 -5,5l0,55.026c9.072,6.33 15.023,16.837 15.023,28.713Z" style="fill:#aec1ed;fill-rule:nonzero;"/><path d="M110.208,161.63l0,36.149c11.118,6.548 19.437,17.355 22.686,30.169l0,-66.318l-22.686,0Z" style="fill:#aec1ed;fill-rule:nonzero;"/></g><path d="M362.998,70.586c0,2.75 -2.25,5 -5,5l-203.996,0c-2.75,0 -5,-2.25 -5,-5l0,-17.498c0,-2.75 2.25,-5 5,-5l203.996,0c2.75,0 5,2.25 5,5l0,17.498Z" style="fill:#2e4c89;fill-rule:nonzero;"/><path d="M168.845,70.586l0,-17.498c0,-2.75 2.25,-5 5,-5l-19.843,0c-2.75,0 -5,2.25 -5,5l0,17.498c0,2.75 2.25,5 5,5l19.843,0c-2.75,0 -5,-2.25 -5,-5Z" style="fill:#293d7c;fill-rule:nonzero;"/><path d="M218.477,345.587l75.047,0l42.476,-24.886l0,-8.112c0,-2.75 -2.25,-5 -5,-5l-150,0c-2.75,0 -5,2.25 -5,5l0,8.112l42.477,24.886Z" style="fill:#2e4c89;fill-rule:nonzero;"/><path d="M195.843,332.326l0,-19.737c0,-2.75 2.25,-5 5,-5l-19.843,0c-2.75,0 -5,2.25 -5,5l0,8.112l19.843,11.625Z" style="fill:#293d7c;fill-rule:nonzero;"/><path d="M359.998,283.075c0,2.75 -2.25,5 -5,5l-51.004,0c-2.75,0 -5,-2.25 -5,-5l0,-81.996c0,-2.75 2.25,-5 5,-5l51.004,0c2.75,0 5,2.25 5,5l0,81.996Z" style="fill:#445ea0;fill-rule:nonzero;"/><path d="M318.837,283.075l0,-81.996c0,-2.75 2.25,-5 5,-5l-19.843,0c-2.75,0 -5,2.25 -5,5l0,81.996c0,2.75 2.25,5 5,5l19.843,0c-2.75,0 -5,-2.25 -5,-5Z" style="fill:#293d7c;fill-rule:nonzero;"/><g><path d="M281.739,212.171l-126.637,0c-4.142,0 -7.5,-3.357 -7.5,-7.5c0,-4.143 3.358,-7.5 7.5,-7.5l126.637,0c4.143,0 7.5,3.357 7.5,7.5c0,4.143 -3.357,7.5 -7.5,7.5Z" style="fill:#445ea0;fill-rule:nonzero;"/><path d="M281.739,236.868l-126.637,0c-4.142,0 -7.5,-3.357 -7.5,-7.5c0,-4.143 3.358,-7.5 7.5,-7.5l126.637,0c4.143,0 7.5,3.357 7.5,7.5c0,4.143 -3.357,7.5 -7.5,7.5Z" style="fill:#445ea0;fill-rule:nonzero;"/><path d="M281.739,261.565l-126.637,0c-4.142,0 -7.5,-3.357 -7.5,-7.5c0,-4.143 3.358,-7.5 7.5,-7.5l126.637,0c4.143,0 7.5,3.357 7.5,7.5c0,4.143 -3.357,7.5 -7.5,7.5Z" style="fill:#445ea0;fill-rule:nonzero;"/><path d="M281.739,286.263l-126.637,0c-4.142,0 -7.5,-3.357 -7.5,-7.5c0,-4.143 3.358,-7.5 7.5,-7.5l126.637,0c4.143,0 7.5,3.357 7.5,7.5c0,4.143 -3.357,7.5 -7.5,7.5Z" style="fill:#445ea0;fill-rule:nonzero;"/></g><path d="M206.185,177.465l-48.369,0c-4.143,0 -7.5,-3.357 -7.5,-7.5c0,-4.143 3.357,-7.5 7.5,-7.5l48.369,0c4.143,0 7.5,3.357 7.5,7.5c0,4.142 -3.358,7.5 -7.5,7.5Z" style="fill:#1a2b63;fill-rule:nonzero;"/><g><path d="M280.185,109.02l-48.369,0c-4.143,0 -7.5,-3.357 -7.5,-7.5c0,-4.143 3.357,-7.5 7.5,-7.5l48.369,0c4.142,0 7.5,3.357 7.5,7.5c0,4.142 -3.358,7.5 -7.5,7.5Z" style="fill:#445ea0;fill-rule:nonzero;"/><path d="M280.185,131.835l-48.369,0c-4.143,0 -7.5,-3.358 -7.5,-7.5c0,-4.143 3.357,-7.5 7.5,-7.5l48.369,0c4.142,0 7.5,3.357 7.5,7.5c0,4.142 -3.358,7.5 -7.5,7.5Z" style="fill:#445ea0;fill-rule:nonzero;"/><path d="M280.185,154.649l-48.369,0c-4.143,0 -7.5,-3.357 -7.5,-7.5c0,-4.143 3.357,-7.5 7.5,-7.5l48.369,0c4.142,0 7.5,3.357 7.5,7.5c0,4.143 -3.358,7.5 -7.5,7.5Z" style="fill:#445ea0;fill-rule:nonzero;"/><path d="M280.185,177.465l-48.369,0c-4.143,0 -7.5,-3.357 -7.5,-7.5c0,-4.143 3.357,-7.5 7.5,-7.5l48.369,0c4.142,0 7.5,3.357 7.5,7.5c0,4.142 -3.358,7.5 -7.5,7.5Z" style="fill:#445ea0;fill-rule:nonzero;"/><path d="M354.185,109.02l-48.369,0c-4.142,0 -7.5,-3.357 -7.5,-7.5c0,-4.143 3.358,-7.5 7.5,-7.5l48.369,0c4.142,0 7.5,3.357 7.5,7.5c0,4.142 -3.358,7.5 -7.5,7.5Z" style="fill:#445ea0;fill-rule:nonzero;"/><path d="M354.185,131.835l-48.369,0c-4.142,0 -7.5,-3.358 -7.5,-7.5c0,-4.143 3.358,-7.5 7.5,-7.5l48.369,0c4.142,0 7.5,3.357 7.5,7.5c0,4.142 -3.358,7.5 -7.5,7.5Z" style="fill:#445ea0;fill-rule:nonzero;"/><path d="M354.185,154.649l-48.369,0c-4.142,0 -7.5,-3.357 -7.5,-7.5c0,-4.143 3.358,-7.5 7.5,-7.5l48.369,0c4.142,0 7.5,3.357 7.5,7.5c0,4.143 -3.358,7.5 -7.5,7.5Z" style="fill:#445ea0;fill-rule:nonzero;"/><path d="M354.185,177.465l-48.369,0c-4.142,0 -7.5,-3.357 -7.5,-7.5c0,-4.143 3.358,-7.5 7.5,-7.5l48.369,0c4.142,0 7.5,3.357 7.5,7.5c0,4.142 -3.358,7.5 -7.5,7.5Z" style="fill:#445ea0;fill-rule:nonzero;"/></g><path d="M208.008,143.532l-21.72,-44.943c-1.252,-2.59 -3.876,-4.236 -6.753,-4.236c-2.877,0 -5.501,1.646 -6.753,4.236l-21.72,44.943c-1.802,3.73 -0.24,8.214 3.489,10.017c3.729,1.8 8.214,0.24 10.017,-3.489l3.461,-7.161l23.012,0l3.461,7.161c1.294,2.678 3.971,4.238 6.759,4.238c1.094,0 2.206,-0.241 3.258,-0.749c3.729,-1.803 5.291,-6.287 3.489,-10.017Zm-32.731,-15.634l4.258,-8.81l4.258,8.81l-8.516,0Z" style="fill:#1a2b63;fill-rule:nonzero;"/><g><path d="M354.185,32.089l-6.024,0c-4.143,0 -7.5,-3.358 -7.5,-7.5c0,-4.143 3.357,-7.5 7.5,-7.5l6.024,0c4.142,0 7.5,3.357 7.5,7.5c0,4.142 -3.358,7.5 -7.5,7.5Z" style="fill:#445ea0;fill-rule:nonzero;"/><path d="M179.701,32.089l-21.886,0c-4.143,0 -7.5,-3.358 -7.5,-7.5c0,-4.143 3.357,-7.5 7.5,-7.5l21.886,0c4.143,0 7.5,3.357 7.5,7.5c0,4.142 -3.357,7.5 -7.5,7.5Z" style="fill:#445ea0;fill-rule:nonzero;"/></g><g><path d="M111.057,281.652c-7.453,4.594 -16.222,7.252 -25.602,7.252c-6.801,0 -13.281,-1.397 -19.172,-3.916l0,137.032c10.747,13.137 22.837,25.129 36.05,35.784c8.626,-6.272 104.446,-75.942 138.056,-100.379l-129.332,-75.773Z" style="fill:#ffaf10;fill-rule:nonzero;"/><path d="M271.611,357.425c33.605,24.435 129.411,94.094 138.056,100.38c13.213,-10.656 25.303,-22.648 36.05,-35.785l0,-166.6l-174.106,102.005Z" style="fill:#ffaf10;fill-rule:nonzero;"/></g><path d="M85.455,288.904c-6.801,0 -13.281,-1.397 -19.172,-3.916l0,137.032c6.184,7.559 12.813,14.739 19.843,21.506l0,-154.638c-0.225,0.003 -0.446,0.016 -0.671,0.016Z" style="fill:#ef9614;fill-rule:nonzero;"/><path d="M260.044,348.014c-2.224,-1.617 -5.864,-1.617 -8.088,0c0,0 -150.27,109.259 -150.271,109.261c0,0 0.01,0.017 0.012,0.02c42.125,34.198 95.816,54.705 154.303,54.705c58.492,0 112.185,-20.509 154.31,-54.713l0.007,-0.01c-0.001,-0.001 -150.273,-109.263 -150.273,-109.263Z" style="fill:#ffd00d;fill-rule:nonzero;"/><path d="M135.392,239.968c0,27.574 -22.358,49.936 -49.937,49.936c-27.577,0 -49.938,-22.362 -49.938,-49.936c0,-27.579 22.36,-49.937 49.938,-49.937c27.578,0 49.937,22.358 49.937,49.937Z" style="fill:#fe3745;fill-rule:nonzero;"/><path d="M55.36,239.968c0,-24.182 17.191,-44.346 40.017,-48.947c-3.207,-0.646 -6.524,-0.989 -9.922,-0.989c-27.577,0 -49.938,22.357 -49.938,49.937c0,27.574 22.36,49.936 49.938,49.936c3.397,0 6.715,-0.343 9.922,-0.989c-22.825,-4.603 -40.017,-24.771 -40.017,-48.948Z" style="fill:#b7092b;fill-rule:nonzero;"/><path d="M86.97,261.61c-2.762,0 -5,-2.238 -5,-5l0,-28.29l-2.568,0c-2.762,0 -5,-2.238 -5,-5c0,-2.762 2.238,-5 5,-5l7.568,0c2.762,0 5,2.238 5,5l0,33.29c0,2.762 -2.239,5 -5,5Z" style="fill:#fff;fill-rule:nonzero;"/><path d="M68.932,161.63c0.759,8.463 7.861,15.1 16.523,15.1c8.661,0 15.764,-6.637 16.521,-15.1l-33.044,0Z" style="fill:#ff9518;fill-rule:nonzero;"/><path d="M80.271,161.63l-11.34,0c0.759,8.463 7.861,15.1 16.523,15.1c1.995,0 3.899,-0.37 5.671,-1.016c-5.92,-2.155 -10.27,-7.573 -10.854,-14.084Z" style="fill:#ef8318;fill-rule:nonzero;"/><path d="M126.23,125.833l0,-37.094c0,-19.799 -16.199,-35.998 -35.998,-35.998l-9.556,0c-19.8,0 -35.998,16.199 -35.998,35.998l0,37.094l81.552,0Z" style="fill:#ff9518;fill-rule:nonzero;"/><path d="M64.521,125.833l0,-37.094c0,-18.053 13.469,-33.107 30.854,-35.622c-1.682,-0.243 -3.397,-0.376 -5.144,-0.376l-9.556,0c-19.8,0 -35.998,16.199 -35.998,35.998l0,37.094l19.844,0Z" style="fill:#ef8318;fill-rule:nonzero;"/><path d="M139.433,156.63c0,3.299 -2.7,6 -5.999,6l-95.957,0c-3.301,0 -6.001,-2.701 -6.001,-6l0,-25.798c0,-3.299 2.7,-5.999 6.001,-5.999l95.957,0c3.299,0 5.999,2.7 5.999,5.999l0,25.798Z" style="fill:#ffd00d;fill-rule:nonzero;"/><path d="M51.318,156.63l0,-25.798c0,-3.299 2.7,-5.999 6.001,-5.999l-19.842,0c-3.301,0 -6.001,2.7 -6.001,5.999l0,25.798c0,3.299 2.7,6 6.001,6l19.843,0c-3.301,0 -6.002,-2.701 -6.002,-6Z" style="fill:#ffaf10;fill-rule:nonzero;"/></svg>