<?xml version="1.0" encoding="UTF-8" standalone="no"?><!DOCTYPE svg PUBLIC "-//W3C//DTD SVG 1.1//EN" "http://www.w3.org/Graphics/SVG/1.1/DTD/svg11.dtd"><svg width="100%" height="100%" viewBox="0 0 512 512" version="1.1" xmlns="http://www.w3.org/2000/svg" xmlns:xlink="http://www.w3.org/1999/xlink" xml:space="preserve" xmlns:serif="http://www.serif.com/" style="fill-rule:evenodd;clip-rule:evenodd;stroke-linejoin:round;stroke-miterlimit:1.41421;"><rect x="0" y="0" width="522.858" height="512" style="fill:#f9e584;"/><path d="M512,256c0,84.344 -40.793,159.159 -103.717,205.803c-26.342,19.519 -56.56,34.105 -89.287,42.381c-20.155,5.11 -41.252,7.816 -62.996,7.816c-21.744,0 -42.851,-2.706 -63.007,-7.816c-32.726,-8.276 -62.945,-22.862 -89.287,-42.392c-62.924,-46.644 -103.706,-121.458 -103.706,-205.792c0,-141.385 114.615,-256 256,-256c141.385,0 256,114.615 256,256Z" style="fill:#5adafd;fill-rule:nonzero;"/><path d="M420.847,346.702c-2.175,-7.848 -4.77,-15.889 -7.753,-24.082c-2.626,-7.18 -5.549,-14.477 -8.768,-21.852c-8.445,-19.36 -18.885,-39.283 -31.033,-59.214c-5.298,-8.712 -10.94,-17.427 -16.879,-26.087c-5.232,-7.65 -10.705,-15.275 -16.397,-22.826c-5.693,-7.55 -11.517,-14.912 -17.439,-22.054c-6.696,-8.102 -13.531,-15.917 -20.44,-23.415c-15.819,-17.163 -32.093,-32.675 -48.382,-46.122c-6.204,-5.123 -12.415,-9.941 -18.595,-14.443c-7.047,-5.129 -14.073,-9.83 -21.019,-14.081c-45.399,-27.76 -83.66,-33.068 -107.714,-14.934c-24.054,18.135 -29.48,56.38 -15.293,107.672c2.174,7.848 4.762,15.881 7.746,24.074c2.625,7.18 5.549,14.476 8.775,21.846c8.438,19.366 18.886,39.283 31.032,59.229c5.307,8.705 10.948,17.42 16.886,26.095c5.231,7.65 10.713,15.268 16.405,22.819c5.693,7.55 11.502,14.909 17.417,22.044c6.706,8.095 13.526,15.909 20.441,23.415c15.819,17.163 32.106,32.692 48.402,46.133c6.204,5.123 12.406,9.947 18.595,14.442c7.041,5.122 14.058,9.829 21.005,14.079c45.414,27.762 83.668,33.063 107.723,14.928c24.053,-18.136 29.486,-56.372 15.285,-107.666Zm-60.579,93.722c-14.397,-2.52 -31.735,-9.81 -50.152,-21.063c-6.196,-3.794 -12.46,-7.971 -18.745,-12.524c-6.179,-4.463 -12.382,-9.273 -18.585,-14.411c-10.67,-8.823 -21.346,-18.611 -31.899,-29.223c-7.044,-7.069 -14.028,-14.51 -20.905,-22.294c-9.998,-11.266 -19.773,-23.224 -29.215,-35.748c-9.441,-12.524 -18.248,-25.212 -26.336,-37.918c-5.583,-8.759 -10.821,-17.529 -15.679,-26.246c-7.298,-13.067 -13.769,-26.024 -19.316,-38.71c-3.233,-7.378 -6.149,-14.665 -8.74,-21.833c-2.647,-7.296 -4.938,-14.466 -6.881,-21.469c-5.75,-20.801 -7.988,-39.477 -6.448,-54.011c1.413,-13.419 5.858,-23.038 13.225,-28.592c7.367,-5.554 17.84,-7.182 31.128,-4.847c14.397,2.52 31.735,9.81 50.152,21.063c6.196,3.794 12.46,7.971 18.745,12.524c6.179,4.463 12.382,9.273 18.585,14.411c10.67,8.824 21.346,18.611 31.899,29.223c7.044,7.069 14.034,14.518 20.919,22.296c9.99,11.273 19.764,23.231 29.206,35.755c9.442,12.523 18.248,25.211 26.328,37.924c5.59,8.753 10.822,17.515 15.68,26.233c7.298,13.066 13.77,26.023 19.316,38.709c3.233,7.378 6.15,14.665 8.74,21.833c2.647,7.296 4.939,14.466 6.881,21.469c5.751,20.802 7.988,39.477 6.449,54.011c-1.413,13.419 -5.859,23.039 -13.226,28.593c-7.366,5.553 -17.838,7.18 -31.126,4.845Z" style="fill:#f2f2f2;fill-rule:nonzero;"/><path d="M313.701,76.881c-7.291,3.628 -14.692,7.705 -22.168,12.192c-6.549,3.943 -13.156,8.202 -19.785,12.764c-17.4,11.974 -34.973,26.014 -52.229,41.731c-7.545,6.859 -15.027,14.055 -22.4,21.534c-6.515,6.591 -12.96,13.414 -19.29,20.439c-6.329,7.025 -12.448,14.143 -18.334,21.316c-6.68,8.115 -13.052,16.312 -19.099,24.521c-13.841,18.795 -25.973,37.723 -36.076,56.272c-3.85,7.066 -7.398,14.08 -10.642,21.003c-3.695,7.894 -6.974,15.686 -9.825,23.314c-18.617,49.85 -16.55,88.423 5.829,108.588c22.379,20.165 60.958,18.216 108.615,-5.468c7.291,-3.628 14.685,-7.697 22.16,-12.184c6.55,-3.944 13.157,-8.202 19.778,-12.772c17.408,-11.967 34.973,-26.013 52.244,-41.731c7.537,-6.867 15.02,-14.063 22.407,-21.542c6.515,-6.591 12.951,-13.422 19.281,-20.447c6.33,-7.025 12.449,-14.128 18.328,-21.292c6.673,-8.123 13.046,-16.305 19.1,-24.522c13.84,-18.795 25.987,-37.738 36.083,-56.294c3.849,-7.065 7.406,-14.072 10.641,-21.003c3.689,-7.887 6.976,-15.671 9.826,-23.299c18.616,-49.866 16.543,-88.43 -5.837,-108.596c-22.38,-20.164 -60.951,-18.224 -108.607,5.476Zm103.534,41.644c0.265,14.613 -3.593,33.021 -11.138,53.242c-2.546,6.806 -5.455,13.749 -8.729,20.786c-3.206,6.915 -6.748,13.92 -10.612,20.987c-6.633,12.154 -14.211,24.496 -22.622,36.876c-5.6,8.26 -11.577,16.532 -17.91,24.763c-9.158,11.959 -19.039,23.83 -29.538,35.482c-10.499,11.652 -21.28,22.711 -32.216,33.069c-7.537,7.147 -15.15,13.957 -22.784,20.385c-11.439,9.65 -22.929,18.468 -34.328,26.327c-6.628,4.577 -13.228,8.827 -19.772,12.733c-6.659,3.987 -13.263,7.6 -19.768,10.84c-19.328,9.603 -37.236,15.352 -51.798,16.605c-13.443,1.166 -23.732,-1.369 -30.586,-7.545c-6.854,-6.176 -10.444,-16.148 -10.68,-29.637c-0.265,-14.614 3.594,-33.022 11.139,-53.243c2.546,-6.805 5.455,-13.749 8.729,-20.786c3.206,-6.914 6.747,-13.92 10.612,-20.987c6.633,-12.153 14.21,-24.496 22.621,-36.876c5.6,-8.26 11.584,-16.539 17.91,-24.777c9.166,-11.952 19.047,-23.823 29.546,-35.475c10.499,-11.651 21.28,-22.711 32.224,-33.061c7.529,-7.154 15.136,-13.957 22.77,-20.384c11.439,-9.651 22.929,-18.469 34.328,-26.327c6.628,-4.578 13.228,-8.827 19.772,-12.734c6.659,-3.986 13.263,-7.6 19.768,-10.839c19.328,-9.603 37.236,-15.352 51.798,-16.606c13.442,-1.165 23.732,1.37 30.586,7.546c6.854,6.175 10.443,16.146 10.678,29.636Z" style="fill:#f2f2f2;fill-rule:nonzero;"/><g><path d="M427.677,178.961c-7.576,-2.988 -15.559,-5.757 -23.897,-8.307c-7.314,-2.226 -14.9,-4.284 -22.727,-6.154c-20.543,-4.911 -42.736,-8.568 -65.964,-10.867c-10.146,-1.014 -20.501,-1.755 -30.992,-2.226c-9.258,-0.428 -18.641,-0.648 -28.097,-0.648c-9.456,0 -18.84,0.219 -28.108,0.648c-10.501,0.47 -20.856,1.223 -31.002,2.226c-23.228,2.299 -45.411,5.956 -65.954,10.867c-7.826,1.87 -15.412,3.929 -22.727,6.154c-8.338,2.539 -16.321,5.319 -23.897,8.307c-49.496,19.539 -76.768,46.895 -76.768,77.019c0,30.124 27.272,57.48 76.769,77.03c7.576,2.988 15.548,5.757 23.886,8.307c7.314,2.226 14.9,4.284 22.727,6.144c20.543,4.921 42.736,8.568 65.975,10.877c10.146,1.003 20.501,1.745 31.002,2.226c9.258,0.428 18.641,0.637 28.097,0.637c9.456,0 18.829,-0.209 28.087,-0.637c10.501,-0.481 20.846,-1.223 31.002,-2.226c23.228,-2.299 45.432,-5.956 65.975,-10.877c7.826,-1.87 15.412,-3.918 22.727,-6.154c8.328,-2.539 16.311,-5.308 23.886,-8.297c49.507,-19.55 76.769,-46.905 76.769,-77.03c-0.001,-30.124 -27.262,-57.48 -76.769,-77.019Zm38.368,104.792c-10.679,9.979 -26.937,19.435 -47.01,27.366c-6.76,2.664 -13.866,5.151 -21.285,7.429c-7.283,2.247 -14.858,4.305 -22.695,6.165c-13.469,3.208 -27.711,5.841 -42.538,7.879c-9.885,1.369 -20.031,2.466 -30.386,3.271c-15.015,1.202 -30.448,1.808 -46.132,1.808c-15.684,0 -31.117,-0.606 -46.132,-1.797c-10.355,-0.815 -20.511,-1.912 -30.396,-3.281c-14.827,-2.038 -29.069,-4.671 -42.538,-7.879c-7.837,-1.86 -15.412,-3.918 -22.695,-6.165c-7.419,-2.278 -14.524,-4.765 -21.285,-7.429c-20.072,-7.931 -36.331,-17.387 -47.01,-27.366c-9.864,-9.206 -14.869,-18.547 -14.869,-27.773c0,-9.226 5.005,-18.568 14.869,-27.773c10.679,-9.979 26.937,-19.435 47.01,-27.366c6.76,-2.664 13.866,-5.151 21.285,-7.429c7.283,-2.247 14.858,-4.305 22.695,-6.165c13.469,-3.208 27.711,-5.841 42.538,-7.879c9.885,-1.369 20.041,-2.466 30.396,-3.281c15.015,-1.191 30.448,-1.797 46.132,-1.797c15.684,0 31.117,0.606 46.132,1.808c10.355,0.805 20.501,1.902 30.386,3.271c14.827,2.038 29.069,4.671 42.538,7.879c7.837,1.86 15.412,3.918 22.695,6.165c7.419,2.278 14.524,4.765 21.285,7.429c20.072,7.931 36.331,17.387 47.01,27.366c9.864,9.206 14.869,18.547 14.869,27.773c0,9.225 -5.005,18.566 -14.869,27.771Z" style="fill:#f2f2f2;fill-rule:nonzero;"/><circle cx="256" cy="255.98" r="46.696" style="fill:#f2f2f2;"/></g></svg>