<?xml version="1.0" encoding="UTF-8" standalone="no"?><!DOCTYPE svg PUBLIC "-//W3C//DTD SVG 1.1//EN" "http://www.w3.org/Graphics/SVG/1.1/DTD/svg11.dtd"><svg width="100%" height="100%" viewBox="0 0 512 512" version="1.1" xmlns="http://www.w3.org/2000/svg" xmlns:xlink="http://www.w3.org/1999/xlink" xml:space="preserve" xmlns:serif="http://www.serif.com/" style="fill-rule:evenodd;clip-rule:evenodd;stroke-linejoin:round;stroke-miterlimit:1.41421;"><rect x="-7.863" y="-10.483" width="527.912" height="522.483" style="fill:#a5e6ff;"/><rect x="184.176" y="417.711" width="143.059" height="59.211" style="fill:#5a5a5a;fill-rule:nonzero;"/><path d="M485.156,426.004l-458.902,0c-14.5,0 -26.254,-11.754 -26.254,-26.254l0,-373.496c0,-14.5 11.754,-26.254 26.254,-26.254l458.902,0c14.5,0 26.254,11.754 26.254,26.254l0,373.496c0,14.5 -11.754,26.254 -26.254,26.254Z" style="fill:#ffd86e;fill-rule:nonzero;"/><path d="M511.414,26.258l0,373.492c0,14.5 -11.754,26.254 -26.254,26.254l-32.07,0c14.5,0 26.254,-11.754 26.254,-26.254l0,-373.492c0,-14.5 -11.754,-26.254 -26.254,-26.254l32.07,0c14.5,0 26.254,11.754 26.254,26.254Z" style="fill:#ffb509;fill-rule:nonzero;"/><path d="M511.41,362.754l-511.41,0l0,36.996c0,14.5 11.754,26.254 26.254,26.254l458.902,0c14.5,0 26.254,-11.754 26.254,-26.254l0,-36.996Z" style="fill:#838383;fill-rule:nonzero;"/><path d="M511.414,362.75l0,37c0,14.5 -11.754,26.254 -26.254,26.254l-32.07,0c14.5,0 26.254,-11.754 26.254,-26.254l0,-37l32.07,0Z" style="fill:#5a5a5a;fill-rule:nonzero;"/><path d="M511.996,89.563l-511.426,-0.001l0,-63.308c0,-14.5 11.754,-26.254 26.25,-26.254l458.922,0c14.5,0 26.254,11.754 26.254,26.254l0,63.309Z" style="fill:#acacac;fill-rule:nonzero;"/><path d="M512,26.25l0,63.316l-32.656,0l0,-63.316c0,-14.492 -11.754,-26.246 -26.258,-26.246l32.66,0c14.5,0 26.254,11.754 26.254,26.246Z" style="fill:#9c9c9c;fill-rule:nonzero;"/><path d="M373.594,511.426l-235.778,0c-2.839,0 -5.144,-2.305 -5.144,-5.145l0,-16.676c0,-11.308 9.168,-20.476 20.476,-20.476l205.114,0c11.308,0 20.476,9.168 20.476,20.476l0,16.676c0,2.84 -2.304,5.145 -5.144,5.145Z" style="fill:#838383;fill-rule:nonzero;"/><path d="M378.738,489.602l0,16.683c0,2.84 -2.304,5.145 -5.148,5.145l-18.164,0l0,-21.828c0,-11.301 -9.168,-20.473 -20.469,-20.473l23.313,0c11.304,0 20.468,9.168 20.468,20.473Z" style="fill:#5a5a5a;fill-rule:nonzero;"/><g><path d="M58.477,186.492c-1.918,0 -3.84,-0.73 -5.305,-2.195l-24.199,-24.203c-2.93,-2.926 -2.93,-7.676 0,-10.606l24.199,-24.199c2.93,-2.93 7.68,-2.93 10.609,0c2.93,2.93 2.93,7.676 0,10.606l-18.898,18.898l18.898,18.898c2.93,2.93 2.93,7.676 0,10.606c-1.465,1.465 -3.386,2.195 -5.304,2.195Z" style="fill:#838383;fill-rule:nonzero;"/><path d="M116.336,186.492c-1.918,0 -3.84,-0.73 -5.305,-2.195c-2.929,-2.93 -2.929,-7.68 0,-10.606l18.899,-18.898l-18.899,-18.898c-2.929,-2.93 -2.929,-7.68 0,-10.606c2.93,-2.93 7.68,-2.93 10.61,0l24.199,24.199c2.93,2.93 2.93,7.68 0,10.606l-24.199,24.203c-1.465,1.465 -3.387,2.195 -5.305,2.195Z" style="fill:#838383;fill-rule:nonzero;"/><path d="M78.723,186.496c-0.914,0 -1.84,-0.168 -2.743,-0.523c-3.855,-1.512 -5.753,-5.868 -4.238,-9.723l19.016,-48.402c1.515,-3.852 5.871,-5.754 9.722,-4.239c3.856,1.516 5.754,5.871 4.239,9.727l-19.016,48.398c-1.16,2.957 -3.988,4.762 -6.98,4.762Z" style="fill:#838383;fill-rule:nonzero;"/><path d="M90.645,231.781l-52,0c-4.141,0 -7.5,-3.359 -7.5,-7.5c0,-4.144 3.359,-7.5 7.5,-7.5l52,0c4.144,0 7.5,3.356 7.5,7.5c0,4.141 -3.356,7.5 -7.5,7.5Z" style="fill:#838383;fill-rule:nonzero;"/><path d="M210.418,231.781l-91.426,0c-4.14,0 -7.5,-3.359 -7.5,-7.5c0,-4.144 3.36,-7.5 7.5,-7.5l91.426,0c4.144,0 7.5,3.356 7.5,7.5c0,4.141 -3.356,7.5 -7.5,7.5Z" style="fill:#838383;fill-rule:nonzero;"/><path d="M60.797,264.336l-22.152,0c-4.141,0 -7.5,-3.356 -7.5,-7.5c0,-4.141 3.359,-7.5 7.5,-7.5l22.152,0c4.144,0 7.5,3.359 7.5,7.5c0,4.144 -3.359,7.5 -7.5,7.5Z" style="fill:#838383;fill-rule:nonzero;"/><path d="M195.668,264.336l-13.492,0c-4.141,0 -7.5,-3.356 -7.5,-7.5c0,-4.141 3.359,-7.5 7.5,-7.5l13.492,0c4.141,0 7.5,3.359 7.5,7.5c0,4.144 -3.359,7.5 -7.5,7.5Z" style="fill:#838383;fill-rule:nonzero;"/><path d="M154.141,264.336l-66.258,0c-4.145,0 -7.5,-3.356 -7.5,-7.5c0,-4.141 3.355,-7.5 7.5,-7.5l66.258,0c4.144,0 7.5,3.359 7.5,7.5c0,4.144 -3.36,7.5 -7.5,7.5Z" style="fill:#838383;fill-rule:nonzero;"/><path d="M245.414,264.336l-25.269,0c-4.141,0 -7.5,-3.356 -7.5,-7.5c0,-4.141 3.359,-7.5 7.5,-7.5l25.269,0c4.141,0 7.5,3.359 7.5,7.5c0,4.144 -3.359,7.5 -7.5,7.5Z" style="fill:#838383;fill-rule:nonzero;"/><path d="M197.039,160.762l-26.652,0c-4.145,0 -7.5,-3.356 -7.5,-7.5c0,-4.141 3.355,-7.5 7.5,-7.5l26.652,0c4.145,0 7.5,3.359 7.5,7.5c0,4.144 -3.355,7.5 -7.5,7.5Z" style="fill:#838383;fill-rule:nonzero;"/><path d="M389.504,160.762l-162.617,0c-4.141,0 -7.5,-3.356 -7.5,-7.5c0,-4.141 3.359,-7.5 7.5,-7.5l162.617,0c4.141,0 7.5,3.359 7.5,7.5c0,4.144 -3.359,7.5 -7.5,7.5Z" style="fill:#838383;fill-rule:nonzero;"/><path d="M364.801,194.727l-65.867,0c-4.145,0 -7.5,-3.356 -7.5,-7.5c0,-4.141 3.355,-7.5 7.5,-7.5l65.867,0c4.144,0 7.5,3.359 7.5,7.5c0,4.144 -3.356,7.5 -7.5,7.5Z" style="fill:#838383;fill-rule:nonzero;"/><path d="M274.23,194.727l-22.644,0c-4.141,0 -7.5,-3.356 -7.5,-7.5c0,-4.141 3.359,-7.5 7.5,-7.5l22.644,0c4.145,0 7.5,3.359 7.5,7.5c0,4.144 -3.355,7.5 -7.5,7.5Z" style="fill:#838383;fill-rule:nonzero;"/><path d="M225.859,194.727l-55.476,0c-4.141,0 -7.5,-3.356 -7.5,-7.5c0,-4.141 3.359,-7.5 7.5,-7.5l55.476,0c4.141,0 7.5,3.359 7.5,7.5c0,4.144 -3.359,7.5 -7.5,7.5Z" style="fill:#838383;fill-rule:nonzero;"/><path d="M154.238,296.621l-52,0c-4.144,0 -7.5,-3.359 -7.5,-7.5c0,-4.144 3.356,-7.5 7.5,-7.5l52,0c4.145,0 7.5,3.356 7.5,7.5c0,4.141 -3.355,7.5 -7.5,7.5Z" style="fill:#838383;fill-rule:nonzero;"/><path d="M78.598,296.621l-39.953,0c-4.141,0 -7.5,-3.359 -7.5,-7.5c0,-4.144 3.359,-7.5 7.5,-7.5l39.953,0c4.14,0 7.5,3.356 7.5,7.5c0,4.141 -3.36,7.5 -7.5,7.5Z" style="fill:#838383;fill-rule:nonzero;"/><path d="M248.5,296.621l-67.926,0c-4.144,0 -7.5,-3.359 -7.5,-7.5c0,-4.144 3.356,-7.5 7.5,-7.5l67.926,0c4.145,0 7.5,3.356 7.5,7.5c0,4.141 -3.355,7.5 -7.5,7.5Z" style="fill:#838383;fill-rule:nonzero;"/></g><rect x="296.664" y="263.391" width="167.152" height="56.605" style="fill:#64dcfc;fill-rule:nonzero;"/><rect x="296.664" y="350.871" width="167.152" height="52.492" style="fill:#64dcfc;fill-rule:nonzero;"/><rect x="444.051" y="263.391" width="19.766" height="56.605" style="fill:#00d1fc;fill-rule:nonzero;"/><rect x="444.051" y="350.871" width="19.766" height="52.492" style="fill:#00d1fc;fill-rule:nonzero;"/><path d="M477.656,275.688l-194.832,0c-4.121,0 -7.461,-3.34 -7.461,-7.461l0,-37.516c0,-4.121 3.34,-7.461 7.461,-7.461l194.832,0c4.121,0 7.461,3.34 7.461,7.461l0,37.516c0,4.121 -3.34,7.461 -7.461,7.461Z" style="fill:#0396fd;fill-rule:nonzero;"/><path d="M477.656,359.809l-194.832,0c-4.121,0 -7.461,-3.34 -7.461,-7.461l0,-37.516c0,-4.121 3.34,-7.461 7.461,-7.461l194.832,0c4.121,0 7.461,3.34 7.461,7.461l0,37.516c0,4.121 -3.34,7.461 -7.461,7.461Z" style="fill:#0396fd;fill-rule:nonzero;"/><path d="M477.656,443.93l-194.832,0c-4.121,0 -7.461,-3.34 -7.461,-7.461l0,-37.516c0,-4.121 3.34,-7.461 7.461,-7.461l194.832,0c4.121,0 7.461,3.34 7.461,7.461l0,37.516c0,4.121 -3.34,7.461 -7.461,7.461Z" style="fill:#0396fd;fill-rule:nonzero;"/><path d="M485.117,230.711l0,37.516c0,4.117 -3.336,7.46 -7.461,7.46l-17.312,0c4.129,0 7.461,-3.343 7.461,-7.46l0,-37.516c0,-4.117 -3.332,-7.461 -7.461,-7.461l17.312,0c4.125,0 7.461,3.344 7.461,7.461Z" style="fill:#0077f0;fill-rule:nonzero;"/><path d="M485.117,314.828l0,37.516c0,4.129 -3.336,7.465 -7.461,7.465l-17.312,0c4.129,0 7.461,-3.336 7.461,-7.465l0,-37.516c0,-4.117 -3.332,-7.461 -7.461,-7.461l17.312,0c4.125,0 7.461,3.344 7.461,7.461Z" style="fill:#0077f0;fill-rule:nonzero;"/><path d="M485.117,398.957l0,37.516c0,4.117 -3.336,7.461 -7.461,7.461l-17.312,0c4.129,0 7.461,-3.344 7.461,-7.461l0,-37.516c0,-4.125 -3.332,-7.461 -7.461,-7.461l17.312,0c4.125,0 7.461,3.336 7.461,7.461Z" style="fill:#0077f0;fill-rule:nonzero;"/><path d="M340.363,256.969l-37.144,0c-4.141,0 -7.5,-3.356 -7.5,-7.5c0,-4.141 3.359,-7.5 7.5,-7.5l37.148,0c4.141,0 7.5,3.359 7.5,7.5c0,4.144 -3.359,7.5 -7.504,7.5Z" style="fill:#e7e7e7;fill-rule:nonzero;"/><path d="M457.262,256.969l-52.442,0c-4.14,0 -7.5,-3.356 -7.5,-7.5c0,-4.141 3.36,-7.5 7.5,-7.5l52.438,0c4.144,0 7.5,3.359 7.5,7.5c0,4.144 -3.356,7.5 -7.496,7.5Z" style="fill:#e7e7e7;fill-rule:nonzero;"/><path d="M378.602,256.969l-12.02,0c-4.141,0 -7.5,-3.356 -7.5,-7.5c0,-4.141 3.359,-7.5 7.5,-7.5l12.02,0c4.144,0 7.5,3.359 7.5,7.5c0,4.144 -3.36,7.5 -7.5,7.5Z" style="fill:#e7e7e7;fill-rule:nonzero;"/><path d="M340.363,341.09l-37.144,0c-4.141,0 -7.5,-3.356 -7.5,-7.5c0,-4.141 3.359,-7.5 7.5,-7.5l37.148,0c4.141,0 7.5,3.359 7.5,7.5c0,4.144 -3.359,7.5 -7.504,7.5Z" style="fill:#e7e7e7;fill-rule:nonzero;"/><path d="M457.262,341.09l-52.442,0c-4.14,0 -7.5,-3.356 -7.5,-7.5c0,-4.141 3.36,-7.5 7.5,-7.5l52.438,0c4.144,0 7.5,3.359 7.5,7.5c0,4.144 -3.356,7.5 -7.496,7.5Z" style="fill:#e7e7e7;fill-rule:nonzero;"/><path d="M378.602,341.09l-12.02,0c-4.141,0 -7.5,-3.356 -7.5,-7.5c0,-4.141 3.359,-7.5 7.5,-7.5l12.02,0c4.144,0 7.5,3.359 7.5,7.5c0,4.144 -3.36,7.5 -7.5,7.5Z" style="fill:#e7e7e7;fill-rule:nonzero;"/><path d="M340.363,425.211l-37.144,0c-4.141,0 -7.5,-3.359 -7.5,-7.5c0,-4.141 3.359,-7.5 7.5,-7.5l37.148,0c4.141,0 7.5,3.359 7.5,7.5c0,4.141 -3.359,7.5 -7.504,7.5Z" style="fill:#e7e7e7;fill-rule:nonzero;"/><path d="M457.262,425.211l-52.442,0c-4.14,0 -7.5,-3.359 -7.5,-7.5c0,-4.141 3.36,-7.5 7.5,-7.5l52.438,0c4.144,0 7.5,3.359 7.5,7.5c0,4.141 -3.356,7.5 -7.496,7.5Z" style="fill:#e7e7e7;fill-rule:nonzero;"/><path d="M378.602,425.211l-12.02,0c-4.141,0 -7.5,-3.359 -7.5,-7.5c0,-4.141 3.359,-7.5 7.5,-7.5l12.02,0c4.144,0 7.5,3.359 7.5,7.5c0,4.141 -3.36,7.5 -7.5,7.5Z" style="fill:#e7e7e7;fill-rule:nonzero;"/><path d="M64.145,44.563c0,8.249 -6.688,14.933 -14.934,14.933c-8.25,0 -14.938,-6.684 -14.938,-14.934c0,-8.246 6.688,-14.933 14.938,-14.933c8.246,0 14.934,6.687 14.934,14.934Z" style="fill:#ff5770;fill-rule:nonzero;"/><path d="M121.816,44.563c0,8.249 -6.683,14.933 -14.933,14.933c-8.246,0 -14.934,-6.684 -14.934,-14.934c0,-8.246 6.688,-14.933 14.934,-14.933c8.25,0 14.933,6.687 14.933,14.934Z" style="fill:#ffd86e;fill-rule:nonzero;"/><path d="M179.492,44.563c0,8.249 -6.687,14.933 -14.933,14.933c-8.25,0 -14.934,-6.684 -14.934,-14.934c0,-8.246 6.684,-14.933 14.934,-14.933c8.246,0 14.933,6.687 14.933,14.934Z" style="fill:#80e0dc;fill-rule:nonzero;"/><path d="M64.137,44.566c0,8.246 -6.68,14.926 -14.922,14.926c-3.996,0 -7.629,-1.566 -10.305,-4.129c8.078,-0.176 14.586,-6.781 14.586,-14.914c0,-4.258 -1.781,-8.09 -4.633,-10.804c0.114,-0.012 0.239,-0.012 0.352,-0.012c8.242,0 14.922,6.679 14.922,14.933Z" style="fill:#ff435f;fill-rule:nonzero;"/><path d="M121.813,44.566c-0.001,8.246 -6.68,14.926 -14.934,14.926c-3.992,0 -7.613,-1.566 -10.301,-4.129c8.09,-0.176 14.594,-6.781 14.594,-14.914c0,-4.258 -1.781,-8.09 -4.629,-10.804c0.109,-0.012 0.223,-0.012 0.34,-0.012c8.254,0 14.93,6.679 14.93,14.933Z" style="fill:#ffb509;fill-rule:nonzero;"/><path d="M179.492,44.566c0,8.246 -6.691,14.926 -14.933,14.926c-3.996,0 -7.618,-1.566 -10.305,-4.129c8.09,-0.176 14.586,-6.781 14.586,-14.914c0,-4.258 -1.781,-8.09 -4.633,-10.804c0.113,-0.012 0.238,-0.012 0.352,-0.012c8.242,0 14.933,6.679 14.933,14.933Z" style="fill:#00a8b0;fill-rule:nonzero;"/></svg>