<?xml version="1.0" encoding="UTF-8" standalone="no"?><!DOCTYPE svg PUBLIC "-//W3C//DTD SVG 1.1//EN" "http://www.w3.org/Graphics/SVG/1.1/DTD/svg11.dtd"><svg width="100%" height="100%" viewBox="0 0 512 512" version="1.1" xmlns="http://www.w3.org/2000/svg" xmlns:xlink="http://www.w3.org/1999/xlink" xml:space="preserve" xmlns:serif="http://www.serif.com/" style="fill-rule:evenodd;clip-rule:evenodd;stroke-linejoin:round;stroke-miterlimit:1.41421;"><rect x="-10.109" y="-1" width="521.109" height="512" style="fill:#ffedc5;"/><path d="M511,255c0,141.387 -114.613,256 -256,256c-141.387,0 -256,-114.613 -256,-256c0,-141.387 114.613,-256 256,-256c141.387,0 256,114.613 256,256Z" style="fill:#18282d;fill-rule:nonzero;"/><path d="M410.984,410.98l-155.98,-155.98l-155.992,155.992c-86.153,-86.152 -86.153,-225.836 0,-311.984c86.152,-86.153 225.832,-86.153 311.972,0c86.153,86.148 86.153,225.82 0,311.972Z" style="fill:#ff2751;fill-rule:nonzero;"/><path d="M410.984,99.016c43.082,43.082 64.618,99.539 64.618,155.984l-220.598,0l155.98,-155.984Z" style="fill:#28b24b;fill-rule:nonzero;"/><path d="M255.004,255l220.598,0c0,56.465 -21.547,112.898 -64.618,155.98l-155.98,-155.98Z" style="fill:#39d365;fill-rule:nonzero;"/><path d="M410.984,99.008l0,0.008l-155.98,155.984l0,-220.609c56.453,0 112.91,21.543 155.98,64.617Z" style="fill:#f4ca19;fill-rule:nonzero;"/><path d="M255.004,34.391l0,220.609l-155.992,-155.992c43.078,-43.074 99.535,-64.617 155.992,-64.617Z" style="fill:#e29b0e;fill-rule:nonzero;"/><path d="M255.004,255l-155.992,155.992c-43.082,-43.07 -64.617,-99.539 -64.617,-155.992l220.609,0Z" style="fill:#d10f46;fill-rule:nonzero;"/><path d="M359.801,255c0,57.879 -46.922,104.801 -104.801,104.801c-57.879,0 -104.801,-46.922 -104.801,-104.801c0,-57.879 46.922,-104.801 104.801,-104.801c57.879,0 104.801,46.922 104.801,104.801Z" style="fill:#18282d;fill-rule:nonzero;"/><path d="M424.254,162.195l-181.543,77.493l18.59,33.902l162.953,-111.395Z" style="fill:#fff;fill-rule:nonzero;"/><path d="M294.988,254.996c0,22.086 -17.902,39.988 -39.988,39.988c-22.082,0 -39.984,-17.902 -39.984,-39.988c0,-22.082 17.902,-39.988 39.984,-39.988c22.086,0 39.988,17.906 39.988,39.988Z" style="fill:#e6e6e6;fill-rule:nonzero;"/><g><path d="M336.359,463.215l-30.265,0c-5.477,0 -9.914,-4.438 -9.914,-9.91l0,-65.86c0,-5.472 4.437,-9.91 9.914,-9.91l30.265,0c5.473,0 9.911,4.438 9.911,9.91l0,65.86c0,5.472 -4.438,9.91 -9.911,9.91Z" style="fill:#31474c;fill-rule:nonzero;"/><path d="M270.133,463.215l-30.266,0c-5.476,0 -9.914,-4.438 -9.914,-9.91l0,-65.86c0,-5.472 4.438,-9.91 9.914,-9.91l30.266,0c5.476,0 9.914,4.438 9.914,9.91l0,65.86c0,5.472 -4.438,9.91 -9.914,9.91Z" style="fill:#31474c;fill-rule:nonzero;"/><path d="M203.906,463.215l-30.265,0c-5.473,0 -9.911,-4.438 -9.911,-9.91l0,-65.86c0,-5.472 4.438,-9.91 9.911,-9.91l30.265,0c5.477,0 9.914,4.438 9.914,9.91l0,65.86c0,5.472 -4.437,9.91 -9.914,9.91Z" style="fill:#31474c;fill-rule:nonzero;"/></g></svg>