<?xml version="1.0" encoding="UTF-8" standalone="no"?><!DOCTYPE svg PUBLIC "-//W3C//DTD SVG 1.1//EN" "http://www.w3.org/Graphics/SVG/1.1/DTD/svg11.dtd"><svg width="100%" height="100%" viewBox="0 0 512 512" version="1.1" xmlns="http://www.w3.org/2000/svg" xmlns:xlink="http://www.w3.org/1999/xlink" xml:space="preserve" xmlns:serif="http://www.serif.com/" style="fill-rule:evenodd;clip-rule:evenodd;stroke-linejoin:round;stroke-miterlimit:1.41421;"><rect x="0" y="0" width="512" height="512" style="fill:#b0e3fe;"/><circle cx="250.5" cy="245" r="245" style="fill:#f24976;"/><path d="M327.683,433.668c-1.088,-3.136 -4.737,-5.732 -8.114,-5.732l-17.385,0c-2.435,0 -4.417,-1.981 -4.417,-4.416l0,-31.176c0,-2.435 1.981,-4.417 4.417,-4.417l17.381,0c3.379,0 7.03,-2.597 8.139,-5.788l3.289,-7.901c1.473,-2.974 0.738,-7.381 -1.665,-9.764l-12.266,-12.172c-0.832,-0.826 -1.29,-1.929 -1.29,-3.105c0,-1.177 0.458,-2.279 1.29,-3.107l22.247,-22.072c0.834,-0.827 1.949,-1.283 3.14,-1.283c1.191,0 2.307,0.456 3.141,1.283l12.264,12.171c1.519,1.508 3.869,2.408 6.286,2.408c1.297,0 2.533,-0.269 3.573,-0.774l8.009,-3.28c3.143,-1.075 5.745,-4.716 5.745,-8.096l0,-17.166c0,-2.435 1.981,-4.416 4.416,-4.416l31.498,0c2.436,0 4.417,1.982 4.417,4.416l0,17.166c0,3.38 2.602,7.021 5.8,8.116l8.016,3.287c0.982,0.48 2.215,0.747 3.511,0.747c2.418,0 4.768,-0.9 6.288,-2.408l6.087,-6.04l0,-30.531l-19.85,0c-1.29,0 -2.989,-0.98 -3.634,-2.098l-16.12,-27.921c-0.646,-1.118 -0.646,-3.078 -0.001,-4.195l16.121,-27.922c0.645,-1.117 2.343,-2.098 3.634,-2.098l19.852,0l0,-49.296l-11.147,0c0.009,0.79 -0.149,1.586 -0.481,2.159l-12.454,21.568c-0.645,1.117 -2.343,2.098 -3.634,2.098l-7.285,0l0,18.675c0,1.103 -0.897,2 -2,2l-328.003,0c-1.103,0 -2,-0.897 -2,-2l0,-44.5l-35,0l0,199.003c14.797,21.191 32.854,39.935 53.453,55.498l227.61,0l-2.878,-6.921Z" style="fill:#c3ddf4;fill-rule:nonzero;"/><g><path d="M297.768,392.345c0,-2.435 1.981,-4.417 4.417,-4.417l17.381,0c3.379,0 7.03,-2.597 8.139,-5.788l2.614,-6.278l-243.821,0c-1.65,0 -3,1.35 -3,3l0,19.719c0,1.65 1.35,3 3,3l211.27,0l0,-9.236Z" style="fill:#eef6ff;fill-rule:nonzero;"/><path d="M450.125,144.523l-10.007,-17.333c-0.646,-1.117 -0.646,-3.078 -0.001,-4.195l10.008,-17.334c0.29,-0.501 0.795,-0.969 1.377,-1.339l0,-15.322l-402.004,0l0,98.089l35,0l0,-67.715c0,-1.103 0.897,-2 2,-2l328.004,0c1.103,0 2,0.897 2,2l0,41.012l7.285,0c1.29,0 2.989,0.98 3.634,2.098l12.453,21.569c0.457,0.79 0.583,1.999 0.395,3.036l11.233,0l0,-41.227c-0.581,-0.37 -1.087,-0.838 -1.377,-1.339Z" style="fill:#eef6ff;fill-rule:nonzero;"/></g><path d="M441.502,33.875l-382.004,0c-5.5,0 -10,4.5 -10,10l0,46.125l402.004,0l0,-46.125c0,-5.5 -4.5,-10 -10,-10Z" style="fill:#293d7c;fill-rule:nonzero;"/><path d="M79.34,33.875l-19.842,0c-5.5,0 -10,4.5 -10,10l0,46.125l19.842,0l0,-46.125c0,-5.5 4.5,-10 10,-10Z" style="fill:#1a2b63;fill-rule:nonzero;"/><path d="M72.924,69.948c-2.217,0 -4.378,-0.896 -5.944,-2.452c-1.557,-1.567 -2.452,-3.728 -2.452,-5.944c0,-2.206 0.896,-4.366 2.452,-5.934c1.566,-1.567 3.728,-2.463 5.944,-2.463c2.205,0 4.377,0.896 5.933,2.463c1.567,1.567 2.464,3.728 2.464,5.934c0,2.217 -0.897,4.377 -2.464,5.944c-1.556,1.556 -3.728,2.452 -5.933,2.452Z" style="fill:#e26693;fill-rule:nonzero;"/><path d="M100.458,69.948c-2.206,0 -4.378,-0.896 -5.935,-2.464c-1.566,-1.556 -2.462,-3.716 -2.462,-5.933c0,-2.206 0.896,-4.366 2.462,-5.934c1.568,-1.567 3.729,-2.463 5.935,-2.463c2.216,0 4.376,0.896 5.945,2.463c1.556,1.567 2.451,3.728 2.451,5.934c0,2.205 -0.895,4.377 -2.451,5.933c-1.569,1.568 -3.729,2.464 -5.945,2.464Z" style="fill:#ffaf10;fill-rule:nonzero;"/><path d="M128.004,69.948c-2.217,0 -4.378,-0.896 -5.934,-2.452c-1.567,-1.567 -2.463,-3.728 -2.463,-5.944c0,-2.206 0.896,-4.366 2.463,-5.934c1.556,-1.567 3.717,-2.463 5.934,-2.463c2.205,0 4.377,0.896 5.933,2.463c1.567,1.567 2.464,3.728 2.464,5.934c0,2.217 -0.896,4.377 -2.464,5.944c-1.567,1.556 -3.728,2.452 -5.933,2.452Z" style="fill:#37c47a;fill-rule:nonzero;"/><path d="M398.881,211.914c-1.29,0 -2.989,-0.98 -3.634,-2.098l-12.452,-21.568c-0.646,-1.117 -0.646,-3.078 0,-4.195l12.453,-21.569c0.645,-1.117 2.343,-2.098 3.634,-2.098l18.621,0l0,-41.012c0,-1.65 -1.35,-3 -3,-3l-328.005,0c-1.65,0 -3,1.35 -3,3l0,111.215c0,1.65 1.35,3 3,3l328.004,0c1.65,0 3,-1.35 3,-3l0,-18.675l-18.621,0Z" style="fill:#02af8e;fill-rule:nonzero;"/><path d="M103.34,230.589l0,-111.215c0,-1.65 1.35,-3 3,-3l-19.842,0c-1.65,0 -3,1.35 -3,3l0,111.215c0,1.65 1.35,3 3,3l19.842,0c-1.65,0 -3,-1.35 -3,-3Z" style="fill:#0f9390;fill-rule:nonzero;"/><g><path d="M184,294.973c0,1.65 -1.35,3 -3,3l-94.502,0c-1.65,0 -3,-1.35 -3,-3l0,-43.6c0,-1.65 1.35,-3 3,-3l94.502,0c1.65,0 3,1.35 3,3l0,43.6Z" style="fill:#eef6ff;fill-rule:nonzero;"/><path d="M264.427,358.592c0,1.65 -1.35,3 -3,3l-58.482,0c-1.65,0 -3,-1.35 -3,-3l0,-107.22c0,-1.65 1.35,-3 3,-3l58.482,0c1.65,0 3,1.35 3,3l0,107.22Z" style="fill:#eef6ff;fill-rule:nonzero;"/><path d="M317.063,352.303c-0.832,-0.826 -1.29,-1.929 -1.29,-3.105c0,-1.177 0.458,-2.279 1.29,-3.107l22.247,-22.072c0.472,-0.468 1.04,-0.802 1.655,-1.017l0,-71.63c0,-1.65 -1.35,-3 -3,-3l-58.482,0c-1.65,0 -3,1.35 -3,3l0,107.22c0,1.65 1.35,3 3,3l46.941,0l-9.361,-9.289Z" style="fill:#eef6ff;fill-rule:nonzero;"/><path d="M357.855,336.19c1.519,1.508 3.869,2.408 6.286,2.408c1.297,0 2.533,-0.269 3.573,-0.774l8.009,-3.28c3.143,-1.075 5.745,-4.716 5.745,-8.096l0,-17.166c0,-2.435 1.981,-4.416 4.416,-4.416l31.498,0c0.041,0 0.079,0.011 0.12,0.012l0,-25.568l-5.606,-9.71c-0.646,-1.118 -0.646,-3.078 -0.001,-4.195l5.607,-9.71l0,-4.322c0,-1.65 -1.35,-3 -3,-3l-58.482,0c-1.65,0 -3,1.35 -3,3l0,80.018l4.835,4.799Z" style="fill:#eef6ff;fill-rule:nonzero;"/><path d="M184,358.592c0,1.65 -1.35,3 -3,3l-94.502,0c-1.65,0 -3,-1.35 -3,-3l0,-43.6c0,-1.65 1.35,-3 3,-3l94.502,0c1.65,0 3,1.35 3,3l0,43.6Z" style="fill:#eef6ff;fill-rule:nonzero;"/></g><g><path d="M103.34,398.58l0,-19.719c0,-1.65 1.35,-3 3,-3l-19.842,0c-1.65,0 -3,1.35 -3,3l0,19.719c0,1.65 1.35,3 3,3l19.842,0c-1.65,0 -3,-1.35 -3,-3Z" style="fill:#d9eafc;fill-rule:nonzero;"/><path d="M103.34,294.973l0,-43.6c0,-1.65 1.35,-3 3,-3l-19.842,0c-1.65,0 -3,1.35 -3,3l0,43.6c0,1.65 1.35,3 3,3l19.842,0c-1.65,0 -3,-1.35 -3,-3Z" style="fill:#d9eafc;fill-rule:nonzero;"/><path d="M219.787,358.592l0,-107.22c0,-1.65 1.35,-3 3,-3l-19.842,0c-1.65,0 -3,1.35 -3,3l0,107.22c0,1.65 1.35,3 3,3l19.842,0c-1.65,0 -3,-1.35 -3,-3Z" style="fill:#d9eafc;fill-rule:nonzero;"/><path d="M296.325,358.592l0,-107.22c0,-1.65 1.35,-3 3,-3l-19.842,0c-1.65,0 -3,1.35 -3,3l0,107.22c0,1.65 1.35,3 3,3l19.842,0c-1.65,0 -3,-1.35 -3,-3Z" style="fill:#d9eafc;fill-rule:nonzero;"/><path d="M357.855,336.19c1.519,1.508 3.869,2.408 6.286,2.408c1.297,0 2.533,-0.269 3.573,-0.774l5.148,-2.108l0,-84.343c0,-1.65 1.35,-3 3,-3l-19.842,0c-1.65,0 -3,1.35 -3,3l0,80.018l4.835,4.799Z" style="fill:#d9eafc;fill-rule:nonzero;"/><path d="M103.34,358.592l0,-43.6c0,-1.65 1.35,-3 3,-3l-19.842,0c-1.65,0 -3,1.35 -3,3l0,43.6c0,1.65 1.35,3 3,3l19.842,0c-1.65,0 -3,-1.35 -3,-3Z" style="fill:#d9eafc;fill-rule:nonzero;"/></g><path d="M426.34,68.155l-44.235,0c-4.142,0 -7.5,-3.357 -7.5,-7.5c0,-4.143 3.358,-7.5 7.5,-7.5l44.235,0c4.142,0 7.5,3.357 7.5,7.5c0,4.143 -3.358,7.5 -7.5,7.5Z" style="fill:#aec1ed;fill-rule:nonzero;"/><path d="M380.468,506.584c0,2.978 2.437,5.416 5.416,5.416l31.498,0c2.979,0 5.417,-2.438 5.417,-5.416l0,-17.164c0,-2.979 2.306,-6.206 5.124,-7.172l8.072,-3.307c2.68,-1.305 6.601,-0.654 8.715,1.445l12.265,12.172c2.114,2.097 5.574,2.097 7.689,0l22.243,-22.075c2.114,-2.098 2.114,-5.531 0,-7.631l-12.265,-12.173c-2.114,-2.098 -2.765,-6.001 -1.445,-8.672l3.311,-7.956c0.978,-2.813 4.214,-5.117 7.194,-5.115l17.381,0c2.979,0 5.417,-2.436 5.417,-5.416l0,-31.176c0,-2.979 -2.438,-5.417 -5.417,-5.417l-17.381,0c-2.979,0 -6.216,-2.302 -7.194,-5.116l-3.311,-7.957c-1.319,-2.671 -0.669,-6.572 1.445,-8.671l12.264,-12.17c2.115,-2.098 2.115,-5.532 0,-7.631l-22.243,-22.074c-2.114,-2.098 -5.574,-2.098 -7.689,0l-12.266,12.171c-2.114,2.099 -6.036,2.749 -8.715,1.446l-8.072,-3.309c-2.818,-0.965 -5.124,-4.191 -5.124,-7.17l0,-17.166c0,-2.979 -2.438,-5.416 -5.417,-5.416l-31.498,0c-2.979,0 -5.416,2.438 -5.416,5.416l0,17.166c0,2.979 -2.307,6.205 -5.125,7.17l-8.068,3.307c-2.679,1.305 -6.601,0.655 -8.716,-1.444l-12.265,-12.171c-2.115,-2.098 -5.575,-2.098 -7.69,0l-22.247,22.073c-2.114,2.1 -2.114,5.531 0,7.631l12.266,12.172c2.115,2.098 2.765,6.001 1.446,8.67l-3.311,7.957c-0.978,2.815 -4.215,5.116 -7.194,5.116l-17.381,0c-2.978,0 -5.417,2.438 -5.417,5.417l0,31.176c0,2.979 2.438,5.416 5.417,5.416l17.381,0c2.979,-0.002 6.216,2.302 7.194,5.115l3.311,7.958c1.321,2.669 0.67,6.572 -1.444,8.67l-12.268,12.173c-2.114,2.1 -2.114,5.533 0,7.631l22.247,22.075c2.115,2.097 5.575,2.097 7.689,-0.002l12.263,-12.172c2.115,-2.098 6.037,-2.748 8.715,-1.444l8.071,3.308c2.818,0.966 5.125,4.192 5.125,7.172l0,17.164l0.003,0Z" style="fill:#445ea0;fill-rule:nonzero;"/><ellipse cx="401.63" cy="407.93" rx="50.47" ry="50.09" style="fill:#ff9518;"/><path d="M366.518,407.934c0.001,-25.074 18.561,-45.843 42.793,-49.512c-2.503,-0.378 -5.066,-0.574 -7.676,-0.574c-27.875,0 -50.469,22.422 -50.47,50.086c0,27.662 22.595,50.087 50.47,50.087c2.61,0 5.174,-0.196 7.676,-0.576c-24.232,-3.671 -42.793,-24.439 -42.793,-49.511Z" style="fill:#ef8318;fill-rule:nonzero;"/><path d="M401.634,466.145c-32.309,0 -58.594,-26.112 -58.594,-58.211c0.001,-32.098 26.286,-58.211 58.594,-58.211c32.309,0 58.595,26.113 58.595,58.21c-0.001,32.099 -26.286,58.212 -58.595,58.212Zm0,-100.173c-23.348,0 -42.344,18.823 -42.345,41.962c0,23.138 18.996,41.963 42.345,41.963c23.35,0 42.345,-18.825 42.346,-41.964c0,-23.138 -18.997,-41.961 -42.346,-41.961Z" style="fill:#293d7c;fill-rule:nonzero;"/><ellipse cx="401.63" cy="407.93" rx="21.334" ry="21.17" style="fill:#c3ddf4;"/><path d="M395.652,407.934c0,-9.006 5.673,-16.678 13.659,-19.738c-2.385,-0.915 -4.967,-1.437 -7.677,-1.437c-11.783,0 -21.335,9.479 -21.335,21.175c0,11.692 9.551,21.173 21.335,21.173c2.71,0 5.292,-0.521 7.677,-1.437c-7.986,-3.061 -13.659,-10.732 -13.659,-19.736Z" style="fill:#aec1ed;fill-rule:nonzero;"/><path d="M401.634,437.23c-16.244,0 -29.46,-13.143 -29.46,-29.297c0,-16.156 13.216,-29.299 29.46,-29.299c16.244,0 29.46,13.143 29.46,29.298c-0.002,16.156 -13.218,29.298 -29.46,29.298Zm0,-42.346c-7.284,0 -13.211,5.855 -13.211,13.05c0,7.193 5.927,13.048 13.211,13.048c7.284,0 13.21,-5.854 13.21,-13.05c0,-7.194 -5.926,-13.048 -13.21,-13.048Z" style="fill:#db722c;fill-rule:nonzero;"/><path d="M398.881,212.914c-1.65,0 -3.675,-1.169 -4.5,-2.598l-12.452,-21.568c-0.825,-1.429 -0.825,-3.767 0,-5.195l12.452,-21.569c0.825,-1.429 2.85,-2.598 4.5,-2.598l24.906,0c1.65,0 3.675,1.169 4.5,2.598l12.453,21.569c0.825,1.429 0.825,3.767 0,5.195l-12.453,21.568c-0.825,1.429 -2.85,2.598 -4.5,2.598l-24.906,0Z" style="fill:#ef8318;fill-rule:nonzero;"/><g><path d="M453.759,147.621c-1.65,0 -3.675,-1.169 -4.5,-2.598l-10.007,-17.333c-0.825,-1.429 -0.825,-3.767 0,-5.195l10.007,-17.334c0.825,-1.429 2.85,-2.598 4.5,-2.598l20.015,0c1.65,0 3.675,1.169 4.5,2.598l10.007,17.334c0.825,1.429 0.825,3.767 0,5.195l-10.007,17.333c-0.825,1.429 -2.85,2.598 -4.5,2.598l-20.015,0Z" style="fill:#ffd00d;fill-rule:nonzero;"/><path d="M431.65,300.618c-1.65,0 -3.675,-1.169 -4.5,-2.598l-16.12,-27.92c-0.825,-1.429 -0.825,-3.767 0,-5.195l16.121,-27.922c0.825,-1.429 2.85,-2.598 4.5,-2.598l32.241,0c1.65,0 3.675,1.169 4.5,2.598l16.121,27.922c0.825,1.429 0.825,3.767 0,5.195l-16.121,27.921c-0.825,1.429 -2.85,2.598 -4.5,2.598l-32.242,-0.001Z" style="fill:#ffd00d;fill-rule:nonzero;"/></g><path d="M414.224,210.316l-12.452,-21.568c-0.825,-1.429 -0.825,-3.767 0,-5.195l12.452,-21.569c0.825,-1.429 2.85,-2.598 4.5,-2.598l-19.842,0c-1.65,0 -3.675,1.169 -4.5,2.598l-12.452,21.569c-0.825,1.429 -0.825,3.767 0,5.195l12.452,21.568c0.825,1.429 2.85,2.598 4.5,2.598l19.842,0c-1.65,0 -3.675,-1.169 -4.5,-2.598Z" style="fill:#db722c;fill-rule:nonzero;"/><g><path d="M469.102,145.023l-10.007,-17.333c-0.825,-1.429 -0.825,-3.767 0,-5.195l10.007,-17.334c0.825,-1.429 2.85,-2.598 4.5,-2.598l-19.842,0c-1.65,0 -3.675,1.169 -4.5,2.598l-10.007,17.334c-0.825,1.429 -0.825,3.767 0,5.195l10.007,17.333c0.825,1.429 2.85,2.598 4.5,2.598l19.842,0c-1.65,0 -3.676,-1.169 -4.5,-2.598Z" style="fill:#ffaf10;fill-rule:nonzero;"/><path d="M446.993,298.021l-16.121,-27.921c-0.825,-1.429 -0.825,-3.767 0,-5.195l16.121,-27.922c0.825,-1.429 2.85,-2.598 4.5,-2.598l-19.843,0c-1.65,0 -3.675,1.169 -4.5,2.598l-16.121,27.922c-0.825,1.429 -0.825,3.767 0,5.195l16.121,27.921c0.825,1.429 2.85,2.598 4.5,2.598l19.842,0c-1.649,-0.001 -3.674,-1.17 -4.499,-2.598Z" style="fill:#ffaf10;fill-rule:nonzero;"/></g></svg>